<mxfile host="app.diagrams.net" modified="2022-01-01T13:30:56.820Z" agent="5.0 (Windows NT 10.0; Win64; x64) AppleWebKit/537.36 (KHTML, like Gecko) Chrome/96.0.4664.110 Safari/537.36" etag="bODh9_Xq93Nn3q-jJXYk" version="16.1.2" type="github">
  <diagram id="ayrWfxRkvkhZxIaLV-r1" name="Page-1">
    <mxGraphModel dx="3118" dy="2442" grid="1" gridSize="10" guides="1" tooltips="1" connect="1" arrows="1" fold="1" page="1" pageScale="1" pageWidth="827" pageHeight="1169" math="0" shadow="0">
      <root>
        <mxCell id="0" />
        <mxCell id="1" parent="0" />
        <mxCell id="BIoIZSFnLaRXP3XJdqJq-96" value="" style="rounded=0;whiteSpace=wrap;html=1;" vertex="1" parent="1">
          <mxGeometry x="-320" y="350" width="1930" height="850" as="geometry" />
        </mxCell>
        <mxCell id="hqKsF4QJngWxF_Nzv7ht-1" value="SimpleEngine" style="swimlane;fontStyle=1;align=center;verticalAlign=top;childLayout=stackLayout;horizontal=1;startSize=26;horizontalStack=0;resizeParent=1;resizeParentMax=0;resizeLast=0;collapsible=1;marginBottom=0;" parent="1" vertex="1">
          <mxGeometry x="-120" y="742" width="160" height="86" as="geometry" />
        </mxCell>
        <mxCell id="hqKsF4QJngWxF_Nzv7ht-2" value="+ field: type" style="text;strokeColor=none;fillColor=none;align=left;verticalAlign=top;spacingLeft=4;spacingRight=4;overflow=hidden;rotatable=0;points=[[0,0.5],[1,0.5]];portConstraint=eastwest;" parent="hqKsF4QJngWxF_Nzv7ht-1" vertex="1">
          <mxGeometry y="26" width="160" height="26" as="geometry" />
        </mxCell>
        <mxCell id="hqKsF4QJngWxF_Nzv7ht-3" value="" style="line;strokeWidth=1;fillColor=none;align=left;verticalAlign=middle;spacingTop=-1;spacingLeft=3;spacingRight=3;rotatable=0;labelPosition=right;points=[];portConstraint=eastwest;" parent="hqKsF4QJngWxF_Nzv7ht-1" vertex="1">
          <mxGeometry y="52" width="160" height="8" as="geometry" />
        </mxCell>
        <mxCell id="hqKsF4QJngWxF_Nzv7ht-4" value="+ method(type): type" style="text;strokeColor=none;fillColor=none;align=left;verticalAlign=top;spacingLeft=4;spacingRight=4;overflow=hidden;rotatable=0;points=[[0,0.5],[1,0.5]];portConstraint=eastwest;" parent="hqKsF4QJngWxF_Nzv7ht-1" vertex="1">
          <mxGeometry y="60" width="160" height="26" as="geometry" />
        </mxCell>
        <mxCell id="hqKsF4QJngWxF_Nzv7ht-6" value="PistonEngine" style="swimlane;fontStyle=1;align=center;verticalAlign=top;childLayout=stackLayout;horizontal=1;startSize=26;horizontalStack=0;resizeParent=1;resizeParentMax=0;resizeLast=0;collapsible=1;marginBottom=0;fillColor=#f5f5f5;fontColor=#333333;strokeColor=#666666;" parent="1" vertex="1">
          <mxGeometry x="-120" y="860" width="160" height="86" as="geometry" />
        </mxCell>
        <mxCell id="hqKsF4QJngWxF_Nzv7ht-7" value="+ field: type" style="text;strokeColor=none;fillColor=none;align=left;verticalAlign=top;spacingLeft=4;spacingRight=4;overflow=hidden;rotatable=0;points=[[0,0.5],[1,0.5]];portConstraint=eastwest;" parent="hqKsF4QJngWxF_Nzv7ht-6" vertex="1">
          <mxGeometry y="26" width="160" height="26" as="geometry" />
        </mxCell>
        <mxCell id="hqKsF4QJngWxF_Nzv7ht-8" value="" style="line;strokeWidth=1;fillColor=none;align=left;verticalAlign=middle;spacingTop=-1;spacingLeft=3;spacingRight=3;rotatable=0;labelPosition=right;points=[];portConstraint=eastwest;" parent="hqKsF4QJngWxF_Nzv7ht-6" vertex="1">
          <mxGeometry y="52" width="160" height="8" as="geometry" />
        </mxCell>
        <mxCell id="hqKsF4QJngWxF_Nzv7ht-9" value="+ method(type): type" style="text;strokeColor=none;fillColor=none;align=left;verticalAlign=top;spacingLeft=4;spacingRight=4;overflow=hidden;rotatable=0;points=[[0,0.5],[1,0.5]];portConstraint=eastwest;" parent="hqKsF4QJngWxF_Nzv7ht-6" vertex="1">
          <mxGeometry y="60" width="160" height="26" as="geometry" />
        </mxCell>
        <mxCell id="hqKsF4QJngWxF_Nzv7ht-10" value="JetEngine" style="swimlane;fontStyle=1;align=center;verticalAlign=top;childLayout=stackLayout;horizontal=1;startSize=26;horizontalStack=0;resizeParent=1;resizeParentMax=0;resizeLast=0;collapsible=1;marginBottom=0;fillColor=#f5f5f5;fontColor=#333333;strokeColor=#666666;" parent="1" vertex="1">
          <mxGeometry x="-120" y="960" width="160" height="86" as="geometry" />
        </mxCell>
        <mxCell id="hqKsF4QJngWxF_Nzv7ht-11" value="+ field: type" style="text;strokeColor=none;fillColor=none;align=left;verticalAlign=top;spacingLeft=4;spacingRight=4;overflow=hidden;rotatable=0;points=[[0,0.5],[1,0.5]];portConstraint=eastwest;" parent="hqKsF4QJngWxF_Nzv7ht-10" vertex="1">
          <mxGeometry y="26" width="160" height="26" as="geometry" />
        </mxCell>
        <mxCell id="hqKsF4QJngWxF_Nzv7ht-12" value="" style="line;strokeWidth=1;fillColor=none;align=left;verticalAlign=middle;spacingTop=-1;spacingLeft=3;spacingRight=3;rotatable=0;labelPosition=right;points=[];portConstraint=eastwest;" parent="hqKsF4QJngWxF_Nzv7ht-10" vertex="1">
          <mxGeometry y="52" width="160" height="8" as="geometry" />
        </mxCell>
        <mxCell id="hqKsF4QJngWxF_Nzv7ht-13" value="+ method(type): type" style="text;strokeColor=none;fillColor=none;align=left;verticalAlign=top;spacingLeft=4;spacingRight=4;overflow=hidden;rotatable=0;points=[[0,0.5],[1,0.5]];portConstraint=eastwest;" parent="hqKsF4QJngWxF_Nzv7ht-10" vertex="1">
          <mxGeometry y="60" width="160" height="26" as="geometry" />
        </mxCell>
        <mxCell id="hqKsF4QJngWxF_Nzv7ht-15" value="CommunityFlightModel" style="swimlane;fontStyle=1;align=center;verticalAlign=top;childLayout=stackLayout;horizontal=1;startSize=26;horizontalStack=0;resizeParent=1;resizeParentMax=0;resizeLast=0;collapsible=1;marginBottom=0;" parent="1" vertex="1">
          <mxGeometry x="520" y="-410" width="291" height="268" as="geometry" />
        </mxCell>
        <mxCell id="hqKsF4QJngWxF_Nzv7ht-16" value="+ field: type" style="text;strokeColor=none;fillColor=none;align=left;verticalAlign=top;spacingLeft=4;spacingRight=4;overflow=hidden;rotatable=0;points=[[0,0.5],[1,0.5]];portConstraint=eastwest;" parent="hqKsF4QJngWxF_Nzv7ht-15" vertex="1">
          <mxGeometry y="26" width="291" height="26" as="geometry" />
        </mxCell>
        <mxCell id="hqKsF4QJngWxF_Nzv7ht-17" value="" style="line;strokeWidth=1;fillColor=none;align=left;verticalAlign=middle;spacingTop=-1;spacingLeft=3;spacingRight=3;rotatable=0;labelPosition=right;points=[];portConstraint=eastwest;" parent="hqKsF4QJngWxF_Nzv7ht-15" vertex="1">
          <mxGeometry y="52" width="291" height="8" as="geometry" />
        </mxCell>
        <mxCell id="hqKsF4QJngWxF_Nzv7ht-18" value="+ ed_fm_add_local_force() : void" style="text;strokeColor=none;fillColor=none;align=left;verticalAlign=top;spacingLeft=4;spacingRight=4;overflow=hidden;rotatable=0;points=[[0,0.5],[1,0.5]];portConstraint=eastwest;" parent="hqKsF4QJngWxF_Nzv7ht-15" vertex="1">
          <mxGeometry y="60" width="291" height="26" as="geometry" />
        </mxCell>
        <mxCell id="hqKsF4QJngWxF_Nzv7ht-21" value="+ ed_fm_add_local_moment() : void" style="text;strokeColor=none;fillColor=none;align=left;verticalAlign=top;spacingLeft=4;spacingRight=4;overflow=hidden;rotatable=0;points=[[0,0.5],[1,0.5]];portConstraint=eastwest;" parent="hqKsF4QJngWxF_Nzv7ht-15" vertex="1">
          <mxGeometry y="86" width="291" height="26" as="geometry" />
        </mxCell>
        <mxCell id="hqKsF4QJngWxF_Nzv7ht-23" value="+ ed_fm_change_mass() : void" style="text;strokeColor=none;fillColor=none;align=left;verticalAlign=top;spacingLeft=4;spacingRight=4;overflow=hidden;rotatable=0;points=[[0,0.5],[1,0.5]];portConstraint=eastwest;" parent="hqKsF4QJngWxF_Nzv7ht-15" vertex="1">
          <mxGeometry y="112" width="291" height="26" as="geometry" />
        </mxCell>
        <mxCell id="hqKsF4QJngWxF_Nzv7ht-25" value="+ ed_fm_set_current_state() : void" style="text;strokeColor=none;fillColor=none;align=left;verticalAlign=top;spacingLeft=4;spacingRight=4;overflow=hidden;rotatable=0;points=[[0,0.5],[1,0.5]];portConstraint=eastwest;" parent="hqKsF4QJngWxF_Nzv7ht-15" vertex="1">
          <mxGeometry y="138" width="291" height="26" as="geometry" />
        </mxCell>
        <mxCell id="hqKsF4QJngWxF_Nzv7ht-24" value="+ ed_fm_set_current_state_body_axis() : void" style="text;strokeColor=none;fillColor=none;align=left;verticalAlign=top;spacingLeft=4;spacingRight=4;overflow=hidden;rotatable=0;points=[[0,0.5],[1,0.5]];portConstraint=eastwest;" parent="hqKsF4QJngWxF_Nzv7ht-15" vertex="1">
          <mxGeometry y="164" width="291" height="26" as="geometry" />
        </mxCell>
        <mxCell id="hqKsF4QJngWxF_Nzv7ht-38" value="+ ed_fm_set_current_mass_state() : void" style="text;strokeColor=none;fillColor=none;align=left;verticalAlign=top;spacingLeft=4;spacingRight=4;overflow=hidden;rotatable=0;points=[[0,0.5],[1,0.5]];portConstraint=eastwest;" parent="hqKsF4QJngWxF_Nzv7ht-15" vertex="1">
          <mxGeometry y="190" width="291" height="26" as="geometry" />
        </mxCell>
        <mxCell id="hqKsF4QJngWxF_Nzv7ht-39" value="+ ed_fm_set_atmosphere() : void" style="text;strokeColor=none;fillColor=none;align=left;verticalAlign=top;spacingLeft=4;spacingRight=4;overflow=hidden;rotatable=0;points=[[0,0.5],[1,0.5]];portConstraint=eastwest;" parent="hqKsF4QJngWxF_Nzv7ht-15" vertex="1">
          <mxGeometry y="216" width="291" height="26" as="geometry" />
        </mxCell>
        <mxCell id="hqKsF4QJngWxF_Nzv7ht-40" value="+ ed_fm_simulate() : void" style="text;strokeColor=none;fillColor=none;align=left;verticalAlign=top;spacingLeft=4;spacingRight=4;overflow=hidden;rotatable=0;points=[[0,0.5],[1,0.5]];portConstraint=eastwest;" parent="hqKsF4QJngWxF_Nzv7ht-15" vertex="1">
          <mxGeometry y="242" width="291" height="26" as="geometry" />
        </mxCell>
        <mxCell id="hqKsF4QJngWxF_Nzv7ht-26" value="EnvironmentalState" style="swimlane;fontStyle=1;align=center;verticalAlign=top;childLayout=stackLayout;horizontal=1;startSize=26;horizontalStack=0;resizeParent=1;resizeParentMax=0;resizeLast=0;collapsible=1;marginBottom=0;" parent="1" vertex="1">
          <mxGeometry x="1050" y="-430" width="160" height="190" as="geometry" />
        </mxCell>
        <mxCell id="hqKsF4QJngWxF_Nzv7ht-27" value="- airDensity: double" style="text;strokeColor=none;fillColor=none;align=left;verticalAlign=top;spacingLeft=4;spacingRight=4;overflow=hidden;rotatable=0;points=[[0,0.5],[1,0.5]];portConstraint=eastwest;" parent="hqKsF4QJngWxF_Nzv7ht-26" vertex="1">
          <mxGeometry y="26" width="160" height="26" as="geometry" />
        </mxCell>
        <mxCell id="BIoIZSFnLaRXP3XJdqJq-18" value="- pressure : double" style="text;strokeColor=none;fillColor=none;align=left;verticalAlign=top;spacingLeft=4;spacingRight=4;overflow=hidden;rotatable=0;points=[[0,0.5],[1,0.5]];portConstraint=eastwest;" vertex="1" parent="hqKsF4QJngWxF_Nzv7ht-26">
          <mxGeometry y="52" width="160" height="26" as="geometry" />
        </mxCell>
        <mxCell id="BIoIZSFnLaRXP3XJdqJq-20" value="- temperature : double" style="text;strokeColor=none;fillColor=none;align=left;verticalAlign=top;spacingLeft=4;spacingRight=4;overflow=hidden;rotatable=0;points=[[0,0.5],[1,0.5]];portConstraint=eastwest;" vertex="1" parent="hqKsF4QJngWxF_Nzv7ht-26">
          <mxGeometry y="78" width="160" height="26" as="geometry" />
        </mxCell>
        <mxCell id="BIoIZSFnLaRXP3XJdqJq-21" value="- speedOfSound : double" style="text;strokeColor=none;fillColor=none;align=left;verticalAlign=top;spacingLeft=4;spacingRight=4;overflow=hidden;rotatable=0;points=[[0,0.5],[1,0.5]];portConstraint=eastwest;" vertex="1" parent="hqKsF4QJngWxF_Nzv7ht-26">
          <mxGeometry y="104" width="160" height="26" as="geometry" />
        </mxCell>
        <mxCell id="BIoIZSFnLaRXP3XJdqJq-19" value="- worldWind : Vec3" style="text;strokeColor=none;fillColor=none;align=left;verticalAlign=top;spacingLeft=4;spacingRight=4;overflow=hidden;rotatable=0;points=[[0,0.5],[1,0.5]];portConstraint=eastwest;" vertex="1" parent="hqKsF4QJngWxF_Nzv7ht-26">
          <mxGeometry y="130" width="160" height="26" as="geometry" />
        </mxCell>
        <mxCell id="hqKsF4QJngWxF_Nzv7ht-28" value="" style="line;strokeWidth=1;fillColor=none;align=left;verticalAlign=middle;spacingTop=-1;spacingLeft=3;spacingRight=3;rotatable=0;labelPosition=right;points=[];portConstraint=eastwest;" parent="hqKsF4QJngWxF_Nzv7ht-26" vertex="1">
          <mxGeometry y="156" width="160" height="8" as="geometry" />
        </mxCell>
        <mxCell id="hqKsF4QJngWxF_Nzv7ht-29" value="+ method(type): type" style="text;strokeColor=none;fillColor=none;align=left;verticalAlign=top;spacingLeft=4;spacingRight=4;overflow=hidden;rotatable=0;points=[[0,0.5],[1,0.5]];portConstraint=eastwest;" parent="hqKsF4QJngWxF_Nzv7ht-26" vertex="1">
          <mxGeometry y="164" width="160" height="26" as="geometry" />
        </mxCell>
        <mxCell id="hqKsF4QJngWxF_Nzv7ht-30" value="Input" style="swimlane;fontStyle=1;align=center;verticalAlign=top;childLayout=stackLayout;horizontal=1;startSize=26;horizontalStack=0;resizeParent=1;resizeParentMax=0;resizeLast=0;collapsible=1;marginBottom=0;" parent="1" vertex="1">
          <mxGeometry x="160" y="-126" width="190" height="86" as="geometry" />
        </mxCell>
        <mxCell id="hqKsF4QJngWxF_Nzv7ht-31" value="- commands : List&lt;Command&gt;" style="text;strokeColor=none;fillColor=none;align=left;verticalAlign=top;spacingLeft=4;spacingRight=4;overflow=hidden;rotatable=0;points=[[0,0.5],[1,0.5]];portConstraint=eastwest;" parent="hqKsF4QJngWxF_Nzv7ht-30" vertex="1">
          <mxGeometry y="26" width="190" height="26" as="geometry" />
        </mxCell>
        <mxCell id="hqKsF4QJngWxF_Nzv7ht-32" value="" style="line;strokeWidth=1;fillColor=none;align=left;verticalAlign=middle;spacingTop=-1;spacingLeft=3;spacingRight=3;rotatable=0;labelPosition=right;points=[];portConstraint=eastwest;" parent="hqKsF4QJngWxF_Nzv7ht-30" vertex="1">
          <mxGeometry y="52" width="190" height="8" as="geometry" />
        </mxCell>
        <mxCell id="hqKsF4QJngWxF_Nzv7ht-33" value="+ method(type): type" style="text;strokeColor=none;fillColor=none;align=left;verticalAlign=top;spacingLeft=4;spacingRight=4;overflow=hidden;rotatable=0;points=[[0,0.5],[1,0.5]];portConstraint=eastwest;" parent="hqKsF4QJngWxF_Nzv7ht-30" vertex="1">
          <mxGeometry y="60" width="190" height="26" as="geometry" />
        </mxCell>
        <mxCell id="hqKsF4QJngWxF_Nzv7ht-34" value="HumanPoweredSystem" style="swimlane;fontStyle=1;align=center;verticalAlign=top;childLayout=stackLayout;horizontal=1;startSize=26;horizontalStack=0;resizeParent=1;resizeParentMax=0;resizeLast=0;collapsible=1;marginBottom=0;" parent="1" vertex="1">
          <mxGeometry x="290" y="610" width="160" height="86" as="geometry" />
        </mxCell>
        <mxCell id="hqKsF4QJngWxF_Nzv7ht-35" value="+ field: type" style="text;strokeColor=none;fillColor=none;align=left;verticalAlign=top;spacingLeft=4;spacingRight=4;overflow=hidden;rotatable=0;points=[[0,0.5],[1,0.5]];portConstraint=eastwest;" parent="hqKsF4QJngWxF_Nzv7ht-34" vertex="1">
          <mxGeometry y="26" width="160" height="26" as="geometry" />
        </mxCell>
        <mxCell id="hqKsF4QJngWxF_Nzv7ht-36" value="" style="line;strokeWidth=1;fillColor=none;align=left;verticalAlign=middle;spacingTop=-1;spacingLeft=3;spacingRight=3;rotatable=0;labelPosition=right;points=[];portConstraint=eastwest;" parent="hqKsF4QJngWxF_Nzv7ht-34" vertex="1">
          <mxGeometry y="52" width="160" height="8" as="geometry" />
        </mxCell>
        <mxCell id="hqKsF4QJngWxF_Nzv7ht-37" value="+ method(type): type" style="text;strokeColor=none;fillColor=none;align=left;verticalAlign=top;spacingLeft=4;spacingRight=4;overflow=hidden;rotatable=0;points=[[0,0.5],[1,0.5]];portConstraint=eastwest;" parent="hqKsF4QJngWxF_Nzv7ht-34" vertex="1">
          <mxGeometry y="60" width="160" height="26" as="geometry" />
        </mxCell>
        <mxCell id="hqKsF4QJngWxF_Nzv7ht-41" value="AircraftSystem &lt;&lt;Abstract&gt;&gt;" style="swimlane;fontStyle=1;align=center;verticalAlign=top;childLayout=stackLayout;horizontal=1;startSize=26;horizontalStack=0;resizeParent=1;resizeParentMax=0;resizeLast=0;collapsible=1;marginBottom=0;" parent="1" vertex="1">
          <mxGeometry x="335" y="360" width="210" height="164" as="geometry" />
        </mxCell>
        <mxCell id="hqKsF4QJngWxF_Nzv7ht-42" value="+ field: type" style="text;strokeColor=none;fillColor=none;align=left;verticalAlign=top;spacingLeft=4;spacingRight=4;overflow=hidden;rotatable=0;points=[[0,0.5],[1,0.5]];portConstraint=eastwest;" parent="hqKsF4QJngWxF_Nzv7ht-41" vertex="1">
          <mxGeometry y="26" width="210" height="26" as="geometry" />
        </mxCell>
        <mxCell id="hqKsF4QJngWxF_Nzv7ht-43" value="" style="line;strokeWidth=1;fillColor=none;align=left;verticalAlign=middle;spacingTop=-1;spacingLeft=3;spacingRight=3;rotatable=0;labelPosition=right;points=[];portConstraint=eastwest;" parent="hqKsF4QJngWxF_Nzv7ht-41" vertex="1">
          <mxGeometry y="52" width="210" height="8" as="geometry" />
        </mxCell>
        <mxCell id="hqKsF4QJngWxF_Nzv7ht-44" value="+ Update(dt : double): void" style="text;strokeColor=none;fillColor=none;align=left;verticalAlign=top;spacingLeft=4;spacingRight=4;overflow=hidden;rotatable=0;points=[[0,0.5],[1,0.5]];portConstraint=eastwest;" parent="hqKsF4QJngWxF_Nzv7ht-41" vertex="1">
          <mxGeometry y="60" width="210" height="26" as="geometry" />
        </mxCell>
        <mxCell id="hqKsF4QJngWxF_Nzv7ht-146" value="+ ColdInit(): void" style="text;strokeColor=none;fillColor=none;align=left;verticalAlign=top;spacingLeft=4;spacingRight=4;overflow=hidden;rotatable=0;points=[[0,0.5],[1,0.5]];portConstraint=eastwest;" parent="hqKsF4QJngWxF_Nzv7ht-41" vertex="1">
          <mxGeometry y="86" width="210" height="26" as="geometry" />
        </mxCell>
        <mxCell id="hqKsF4QJngWxF_Nzv7ht-147" value="+ HotInit(): void" style="text;strokeColor=none;fillColor=none;align=left;verticalAlign=top;spacingLeft=4;spacingRight=4;overflow=hidden;rotatable=0;points=[[0,0.5],[1,0.5]];portConstraint=eastwest;" parent="hqKsF4QJngWxF_Nzv7ht-41" vertex="1">
          <mxGeometry y="112" width="210" height="26" as="geometry" />
        </mxCell>
        <mxCell id="hqKsF4QJngWxF_Nzv7ht-148" value="+ AirborneInit(): void" style="text;strokeColor=none;fillColor=none;align=left;verticalAlign=top;spacingLeft=4;spacingRight=4;overflow=hidden;rotatable=0;points=[[0,0.5],[1,0.5]];portConstraint=eastwest;" parent="hqKsF4QJngWxF_Nzv7ht-41" vertex="1">
          <mxGeometry y="138" width="210" height="26" as="geometry" />
        </mxCell>
        <mxCell id="hqKsF4QJngWxF_Nzv7ht-46" value="" style="endArrow=block;dashed=1;endFill=0;endSize=12;html=1;rounded=0;" parent="1" source="hqKsF4QJngWxF_Nzv7ht-34" target="hqKsF4QJngWxF_Nzv7ht-41" edge="1">
          <mxGeometry width="160" relative="1" as="geometry">
            <mxPoint x="352.41176470588243" y="560" as="sourcePoint" />
            <mxPoint x="337.58823529411757" y="476" as="targetPoint" />
          </mxGeometry>
        </mxCell>
        <mxCell id="hqKsF4QJngWxF_Nzv7ht-50" value="Engine &lt;&lt;Abstract&gt;&gt;" style="swimlane;fontStyle=1;align=center;verticalAlign=top;childLayout=stackLayout;horizontal=1;startSize=26;horizontalStack=0;resizeParent=1;resizeParentMax=0;resizeLast=0;collapsible=1;marginBottom=0;" parent="1" vertex="1">
          <mxGeometry x="-120" y="610" width="160" height="86" as="geometry" />
        </mxCell>
        <mxCell id="hqKsF4QJngWxF_Nzv7ht-51" value="+ field: type" style="text;strokeColor=none;fillColor=none;align=left;verticalAlign=top;spacingLeft=4;spacingRight=4;overflow=hidden;rotatable=0;points=[[0,0.5],[1,0.5]];portConstraint=eastwest;" parent="hqKsF4QJngWxF_Nzv7ht-50" vertex="1">
          <mxGeometry y="26" width="160" height="26" as="geometry" />
        </mxCell>
        <mxCell id="hqKsF4QJngWxF_Nzv7ht-52" value="" style="line;strokeWidth=1;fillColor=none;align=left;verticalAlign=middle;spacingTop=-1;spacingLeft=3;spacingRight=3;rotatable=0;labelPosition=right;points=[];portConstraint=eastwest;" parent="hqKsF4QJngWxF_Nzv7ht-50" vertex="1">
          <mxGeometry y="52" width="160" height="8" as="geometry" />
        </mxCell>
        <mxCell id="hqKsF4QJngWxF_Nzv7ht-53" value="+ method(type): type" style="text;strokeColor=none;fillColor=none;align=left;verticalAlign=top;spacingLeft=4;spacingRight=4;overflow=hidden;rotatable=0;points=[[0,0.5],[1,0.5]];portConstraint=eastwest;" parent="hqKsF4QJngWxF_Nzv7ht-50" vertex="1">
          <mxGeometry y="60" width="160" height="26" as="geometry" />
        </mxCell>
        <mxCell id="hqKsF4QJngWxF_Nzv7ht-54" value="" style="endArrow=block;dashed=1;endFill=0;endSize=12;html=1;rounded=0;" parent="1" source="hqKsF4QJngWxF_Nzv7ht-50" target="hqKsF4QJngWxF_Nzv7ht-41" edge="1">
          <mxGeometry width="160" relative="1" as="geometry">
            <mxPoint x="375.441988950276" y="560" as="sourcePoint" />
            <mxPoint x="395.55248618784526" y="504" as="targetPoint" />
          </mxGeometry>
        </mxCell>
        <mxCell id="hqKsF4QJngWxF_Nzv7ht-55" value="" style="endArrow=block;dashed=1;endFill=0;endSize=12;html=1;rounded=0;" parent="1" source="hqKsF4QJngWxF_Nzv7ht-1" target="hqKsF4QJngWxF_Nzv7ht-50" edge="1">
          <mxGeometry width="160" relative="1" as="geometry">
            <mxPoint x="45" y="740" as="sourcePoint" />
            <mxPoint x="181" y="542.1424050632913" as="targetPoint" />
          </mxGeometry>
        </mxCell>
        <mxCell id="hqKsF4QJngWxF_Nzv7ht-56" value="" style="endArrow=block;dashed=1;endFill=0;endSize=12;html=1;rounded=0;" parent="1" source="hqKsF4QJngWxF_Nzv7ht-6" target="hqKsF4QJngWxF_Nzv7ht-50" edge="1">
          <mxGeometry width="160" relative="1" as="geometry">
            <mxPoint x="-240.44571428571453" y="795" as="sourcePoint" />
            <mxPoint x="-98.55428571428592" y="706" as="targetPoint" />
            <Array as="points">
              <mxPoint x="-199" y="903" />
              <mxPoint x="-199" y="653" />
            </Array>
          </mxGeometry>
        </mxCell>
        <mxCell id="hqKsF4QJngWxF_Nzv7ht-57" value="" style="endArrow=block;dashed=1;endFill=0;endSize=12;html=1;rounded=0;" parent="1" source="hqKsF4QJngWxF_Nzv7ht-10" target="hqKsF4QJngWxF_Nzv7ht-50" edge="1">
          <mxGeometry width="160" relative="1" as="geometry">
            <mxPoint x="-97.13142857142884" y="795" as="sourcePoint" />
            <mxPoint x="-51.86857142857161" y="706" as="targetPoint" />
            <Array as="points">
              <mxPoint x="-199" y="1003" />
              <mxPoint x="-199" y="653" />
            </Array>
          </mxGeometry>
        </mxCell>
        <mxCell id="hqKsF4QJngWxF_Nzv7ht-58" value="TurboPropEngine" style="swimlane;fontStyle=1;align=center;verticalAlign=top;childLayout=stackLayout;horizontal=1;startSize=26;horizontalStack=0;resizeParent=1;resizeParentMax=0;resizeLast=0;collapsible=1;marginBottom=0;fillColor=#f5f5f5;fontColor=#333333;strokeColor=#666666;" parent="1" vertex="1">
          <mxGeometry x="-120" y="1070" width="160" height="86" as="geometry" />
        </mxCell>
        <mxCell id="hqKsF4QJngWxF_Nzv7ht-59" value="+ field: type" style="text;strokeColor=none;fillColor=none;align=left;verticalAlign=top;spacingLeft=4;spacingRight=4;overflow=hidden;rotatable=0;points=[[0,0.5],[1,0.5]];portConstraint=eastwest;" parent="hqKsF4QJngWxF_Nzv7ht-58" vertex="1">
          <mxGeometry y="26" width="160" height="26" as="geometry" />
        </mxCell>
        <mxCell id="hqKsF4QJngWxF_Nzv7ht-60" value="" style="line;strokeWidth=1;fillColor=none;align=left;verticalAlign=middle;spacingTop=-1;spacingLeft=3;spacingRight=3;rotatable=0;labelPosition=right;points=[];portConstraint=eastwest;" parent="hqKsF4QJngWxF_Nzv7ht-58" vertex="1">
          <mxGeometry y="52" width="160" height="8" as="geometry" />
        </mxCell>
        <mxCell id="hqKsF4QJngWxF_Nzv7ht-61" value="+ method(type): type" style="text;strokeColor=none;fillColor=none;align=left;verticalAlign=top;spacingLeft=4;spacingRight=4;overflow=hidden;rotatable=0;points=[[0,0.5],[1,0.5]];portConstraint=eastwest;" parent="hqKsF4QJngWxF_Nzv7ht-58" vertex="1">
          <mxGeometry y="60" width="160" height="26" as="geometry" />
        </mxCell>
        <mxCell id="hqKsF4QJngWxF_Nzv7ht-62" value="" style="endArrow=block;dashed=1;endFill=0;endSize=12;html=1;rounded=0;" parent="1" source="hqKsF4QJngWxF_Nzv7ht-58" target="hqKsF4QJngWxF_Nzv7ht-50" edge="1">
          <mxGeometry width="160" relative="1" as="geometry">
            <mxPoint x="-110" y="1013" as="sourcePoint" />
            <mxPoint x="-110" y="663" as="targetPoint" />
            <Array as="points">
              <mxPoint x="-199" y="1113" />
              <mxPoint x="-199" y="653" />
            </Array>
          </mxGeometry>
        </mxCell>
        <mxCell id="hqKsF4QJngWxF_Nzv7ht-63" value="Avionics" style="swimlane;fontStyle=1;align=center;verticalAlign=top;childLayout=stackLayout;horizontal=1;startSize=26;horizontalStack=0;resizeParent=1;resizeParentMax=0;resizeLast=0;collapsible=1;marginBottom=0;" parent="1" vertex="1">
          <mxGeometry x="1090" y="970" width="160" height="86" as="geometry" />
        </mxCell>
        <mxCell id="hqKsF4QJngWxF_Nzv7ht-64" value="+ field: type" style="text;strokeColor=none;fillColor=none;align=left;verticalAlign=top;spacingLeft=4;spacingRight=4;overflow=hidden;rotatable=0;points=[[0,0.5],[1,0.5]];portConstraint=eastwest;" parent="hqKsF4QJngWxF_Nzv7ht-63" vertex="1">
          <mxGeometry y="26" width="160" height="26" as="geometry" />
        </mxCell>
        <mxCell id="hqKsF4QJngWxF_Nzv7ht-65" value="" style="line;strokeWidth=1;fillColor=none;align=left;verticalAlign=middle;spacingTop=-1;spacingLeft=3;spacingRight=3;rotatable=0;labelPosition=right;points=[];portConstraint=eastwest;" parent="hqKsF4QJngWxF_Nzv7ht-63" vertex="1">
          <mxGeometry y="52" width="160" height="8" as="geometry" />
        </mxCell>
        <mxCell id="hqKsF4QJngWxF_Nzv7ht-66" value="+ method(type): type" style="text;strokeColor=none;fillColor=none;align=left;verticalAlign=top;spacingLeft=4;spacingRight=4;overflow=hidden;rotatable=0;points=[[0,0.5],[1,0.5]];portConstraint=eastwest;" parent="hqKsF4QJngWxF_Nzv7ht-63" vertex="1">
          <mxGeometry y="60" width="160" height="26" as="geometry" />
        </mxCell>
        <mxCell id="hqKsF4QJngWxF_Nzv7ht-67" value="FuelSystem" style="swimlane;fontStyle=1;align=center;verticalAlign=top;childLayout=stackLayout;horizontal=1;startSize=26;horizontalStack=0;resizeParent=1;resizeParentMax=0;resizeLast=0;collapsible=1;marginBottom=0;" parent="1" vertex="1">
          <mxGeometry x="100" y="610" width="160" height="86" as="geometry" />
        </mxCell>
        <mxCell id="hqKsF4QJngWxF_Nzv7ht-68" value="+ field: type" style="text;strokeColor=none;fillColor=none;align=left;verticalAlign=top;spacingLeft=4;spacingRight=4;overflow=hidden;rotatable=0;points=[[0,0.5],[1,0.5]];portConstraint=eastwest;" parent="hqKsF4QJngWxF_Nzv7ht-67" vertex="1">
          <mxGeometry y="26" width="160" height="26" as="geometry" />
        </mxCell>
        <mxCell id="hqKsF4QJngWxF_Nzv7ht-69" value="" style="line;strokeWidth=1;fillColor=none;align=left;verticalAlign=middle;spacingTop=-1;spacingLeft=3;spacingRight=3;rotatable=0;labelPosition=right;points=[];portConstraint=eastwest;" parent="hqKsF4QJngWxF_Nzv7ht-67" vertex="1">
          <mxGeometry y="52" width="160" height="8" as="geometry" />
        </mxCell>
        <mxCell id="hqKsF4QJngWxF_Nzv7ht-70" value="+ method(type): type" style="text;strokeColor=none;fillColor=none;align=left;verticalAlign=top;spacingLeft=4;spacingRight=4;overflow=hidden;rotatable=0;points=[[0,0.5],[1,0.5]];portConstraint=eastwest;" parent="hqKsF4QJngWxF_Nzv7ht-67" vertex="1">
          <mxGeometry y="60" width="160" height="26" as="geometry" />
        </mxCell>
        <mxCell id="hqKsF4QJngWxF_Nzv7ht-71" value="" style="endArrow=block;dashed=1;endFill=0;endSize=12;html=1;rounded=0;startArrow=none;" parent="1" source="hqKsF4QJngWxF_Nzv7ht-87" target="hqKsF4QJngWxF_Nzv7ht-41" edge="1">
          <mxGeometry width="160" relative="1" as="geometry">
            <mxPoint x="937.5414364640883" y="420" as="sourcePoint" />
            <mxPoint x="810" y="344.311475409836" as="targetPoint" />
          </mxGeometry>
        </mxCell>
        <mxCell id="hqKsF4QJngWxF_Nzv7ht-72" value="" style="endArrow=block;dashed=1;endFill=0;endSize=12;html=1;rounded=0;" parent="1" source="hqKsF4QJngWxF_Nzv7ht-67" target="hqKsF4QJngWxF_Nzv7ht-41" edge="1">
          <mxGeometry width="160" relative="1" as="geometry">
            <mxPoint x="505.0552486187844" y="560" as="sourcePoint" />
            <mxPoint x="472.5690607734805" y="504" as="targetPoint" />
          </mxGeometry>
        </mxCell>
        <mxCell id="hqKsF4QJngWxF_Nzv7ht-73" value="Radio" style="swimlane;fontStyle=1;align=center;verticalAlign=top;childLayout=stackLayout;horizontal=1;startSize=26;horizontalStack=0;resizeParent=1;resizeParentMax=0;resizeLast=0;collapsible=1;marginBottom=0;" parent="1" vertex="1">
          <mxGeometry x="1090" y="860" width="160" height="86" as="geometry" />
        </mxCell>
        <mxCell id="hqKsF4QJngWxF_Nzv7ht-74" value="+ field: type" style="text;strokeColor=none;fillColor=none;align=left;verticalAlign=top;spacingLeft=4;spacingRight=4;overflow=hidden;rotatable=0;points=[[0,0.5],[1,0.5]];portConstraint=eastwest;" parent="hqKsF4QJngWxF_Nzv7ht-73" vertex="1">
          <mxGeometry y="26" width="160" height="26" as="geometry" />
        </mxCell>
        <mxCell id="hqKsF4QJngWxF_Nzv7ht-75" value="" style="line;strokeWidth=1;fillColor=none;align=left;verticalAlign=middle;spacingTop=-1;spacingLeft=3;spacingRight=3;rotatable=0;labelPosition=right;points=[];portConstraint=eastwest;" parent="hqKsF4QJngWxF_Nzv7ht-73" vertex="1">
          <mxGeometry y="52" width="160" height="8" as="geometry" />
        </mxCell>
        <mxCell id="hqKsF4QJngWxF_Nzv7ht-76" value="+ method(type): type" style="text;strokeColor=none;fillColor=none;align=left;verticalAlign=top;spacingLeft=4;spacingRight=4;overflow=hidden;rotatable=0;points=[[0,0.5],[1,0.5]];portConstraint=eastwest;" parent="hqKsF4QJngWxF_Nzv7ht-73" vertex="1">
          <mxGeometry y="60" width="160" height="26" as="geometry" />
        </mxCell>
        <mxCell id="hqKsF4QJngWxF_Nzv7ht-77" value="" style="endArrow=block;dashed=1;endFill=0;endSize=12;html=1;rounded=0;" parent="1" source="hqKsF4QJngWxF_Nzv7ht-73" target="hqKsF4QJngWxF_Nzv7ht-87" edge="1">
          <mxGeometry width="160" relative="1" as="geometry">
            <mxPoint x="1006" y="594.3267326732675" as="sourcePoint" />
            <mxPoint x="686" y="479.6336633663368" as="targetPoint" />
          </mxGeometry>
        </mxCell>
        <mxCell id="hqKsF4QJngWxF_Nzv7ht-78" value="Beacon" style="swimlane;fontStyle=1;align=center;verticalAlign=top;childLayout=stackLayout;horizontal=1;startSize=26;horizontalStack=0;resizeParent=1;resizeParentMax=0;resizeLast=0;collapsible=1;marginBottom=0;" parent="1" vertex="1">
          <mxGeometry x="1090" y="740" width="160" height="86" as="geometry" />
        </mxCell>
        <mxCell id="hqKsF4QJngWxF_Nzv7ht-79" value="+ field: type" style="text;strokeColor=none;fillColor=none;align=left;verticalAlign=top;spacingLeft=4;spacingRight=4;overflow=hidden;rotatable=0;points=[[0,0.5],[1,0.5]];portConstraint=eastwest;" parent="hqKsF4QJngWxF_Nzv7ht-78" vertex="1">
          <mxGeometry y="26" width="160" height="26" as="geometry" />
        </mxCell>
        <mxCell id="hqKsF4QJngWxF_Nzv7ht-80" value="" style="line;strokeWidth=1;fillColor=none;align=left;verticalAlign=middle;spacingTop=-1;spacingLeft=3;spacingRight=3;rotatable=0;labelPosition=right;points=[];portConstraint=eastwest;" parent="hqKsF4QJngWxF_Nzv7ht-78" vertex="1">
          <mxGeometry y="52" width="160" height="8" as="geometry" />
        </mxCell>
        <mxCell id="hqKsF4QJngWxF_Nzv7ht-81" value="+ method(type): type" style="text;strokeColor=none;fillColor=none;align=left;verticalAlign=top;spacingLeft=4;spacingRight=4;overflow=hidden;rotatable=0;points=[[0,0.5],[1,0.5]];portConstraint=eastwest;" parent="hqKsF4QJngWxF_Nzv7ht-78" vertex="1">
          <mxGeometry y="60" width="160" height="26" as="geometry" />
        </mxCell>
        <mxCell id="hqKsF4QJngWxF_Nzv7ht-82" value="" style="endArrow=block;dashed=1;endFill=0;endSize=12;html=1;rounded=0;" parent="1" source="hqKsF4QJngWxF_Nzv7ht-78" target="hqKsF4QJngWxF_Nzv7ht-87" edge="1">
          <mxGeometry width="160" relative="1" as="geometry">
            <mxPoint x="1206" y="602.4609929078015" as="sourcePoint" />
            <mxPoint x="686" y="468.95744680851067" as="targetPoint" />
          </mxGeometry>
        </mxCell>
        <mxCell id="hqKsF4QJngWxF_Nzv7ht-83" value="AerodynamicModel" style="swimlane;fontStyle=1;align=center;verticalAlign=top;childLayout=stackLayout;horizontal=1;startSize=26;horizontalStack=0;resizeParent=1;resizeParentMax=0;resizeLast=0;collapsible=1;marginBottom=0;" parent="1" vertex="1">
          <mxGeometry x="980" y="-100" width="310" height="190" as="geometry" />
        </mxCell>
        <mxCell id="hqKsF4QJngWxF_Nzv7ht-84" value="- forceCoefficients: List&lt;Coefficient&gt;" style="text;strokeColor=none;fillColor=none;align=left;verticalAlign=top;spacingLeft=4;spacingRight=4;overflow=hidden;rotatable=0;points=[[0,0.5],[1,0.5]];portConstraint=eastwest;" parent="hqKsF4QJngWxF_Nzv7ht-83" vertex="1">
          <mxGeometry y="26" width="310" height="26" as="geometry" />
        </mxCell>
        <mxCell id="BIoIZSFnLaRXP3XJdqJq-75" value="- momentCoefficients: List&lt;Coefficient&gt;" style="text;strokeColor=none;fillColor=none;align=left;verticalAlign=top;spacingLeft=4;spacingRight=4;overflow=hidden;rotatable=0;points=[[0,0.5],[1,0.5]];portConstraint=eastwest;" vertex="1" parent="hqKsF4QJngWxF_Nzv7ht-83">
          <mxGeometry y="52" width="310" height="26" as="geometry" />
        </mxCell>
        <mxCell id="hqKsF4QJngWxF_Nzv7ht-85" value="" style="line;strokeWidth=1;fillColor=none;align=left;verticalAlign=middle;spacingTop=-1;spacingLeft=3;spacingRight=3;rotatable=0;labelPosition=right;points=[];portConstraint=eastwest;" parent="hqKsF4QJngWxF_Nzv7ht-83" vertex="1">
          <mxGeometry y="78" width="310" height="8" as="geometry" />
        </mxCell>
        <mxCell id="hqKsF4QJngWxF_Nzv7ht-86" value="+ Calculate(dt : double) : type" style="text;strokeColor=none;fillColor=none;align=left;verticalAlign=top;spacingLeft=4;spacingRight=4;overflow=hidden;rotatable=0;points=[[0,0.5],[1,0.5]];portConstraint=eastwest;" parent="hqKsF4QJngWxF_Nzv7ht-83" vertex="1">
          <mxGeometry y="86" width="310" height="26" as="geometry" />
        </mxCell>
        <mxCell id="hqKsF4QJngWxF_Nzv7ht-141" value="- calculateLocalPhysicsParameters(dt : double): void" style="text;strokeColor=none;fillColor=none;align=left;verticalAlign=top;spacingLeft=4;spacingRight=4;overflow=hidden;rotatable=0;points=[[0,0.5],[1,0.5]];portConstraint=eastwest;" parent="hqKsF4QJngWxF_Nzv7ht-83" vertex="1">
          <mxGeometry y="112" width="310" height="26" as="geometry" />
        </mxCell>
        <mxCell id="hqKsF4QJngWxF_Nzv7ht-133" value="- calculateLift() : void" style="text;strokeColor=none;fillColor=none;align=left;verticalAlign=top;spacingLeft=4;spacingRight=4;overflow=hidden;rotatable=0;points=[[0,0.5],[1,0.5]];portConstraint=eastwest;" parent="hqKsF4QJngWxF_Nzv7ht-83" vertex="1">
          <mxGeometry y="138" width="310" height="26" as="geometry" />
        </mxCell>
        <mxCell id="hqKsF4QJngWxF_Nzv7ht-134" value="- calculateMoments() : void" style="text;strokeColor=none;fillColor=none;align=left;verticalAlign=top;spacingLeft=4;spacingRight=4;overflow=hidden;rotatable=0;points=[[0,0.5],[1,0.5]];portConstraint=eastwest;" parent="hqKsF4QJngWxF_Nzv7ht-83" vertex="1">
          <mxGeometry y="164" width="310" height="26" as="geometry" />
        </mxCell>
        <mxCell id="hqKsF4QJngWxF_Nzv7ht-91" value="HydraulicSystem" style="swimlane;fontStyle=1;align=center;verticalAlign=top;childLayout=stackLayout;horizontal=1;startSize=26;horizontalStack=0;resizeParent=1;resizeParentMax=0;resizeLast=0;collapsible=1;marginBottom=0;" parent="1" vertex="1">
          <mxGeometry x="545.5" y="610" width="160" height="86" as="geometry" />
        </mxCell>
        <mxCell id="hqKsF4QJngWxF_Nzv7ht-92" value="+ field: type" style="text;strokeColor=none;fillColor=none;align=left;verticalAlign=top;spacingLeft=4;spacingRight=4;overflow=hidden;rotatable=0;points=[[0,0.5],[1,0.5]];portConstraint=eastwest;" parent="hqKsF4QJngWxF_Nzv7ht-91" vertex="1">
          <mxGeometry y="26" width="160" height="26" as="geometry" />
        </mxCell>
        <mxCell id="hqKsF4QJngWxF_Nzv7ht-93" value="" style="line;strokeWidth=1;fillColor=none;align=left;verticalAlign=middle;spacingTop=-1;spacingLeft=3;spacingRight=3;rotatable=0;labelPosition=right;points=[];portConstraint=eastwest;" parent="hqKsF4QJngWxF_Nzv7ht-91" vertex="1">
          <mxGeometry y="52" width="160" height="8" as="geometry" />
        </mxCell>
        <mxCell id="hqKsF4QJngWxF_Nzv7ht-94" value="+ method(type): type" style="text;strokeColor=none;fillColor=none;align=left;verticalAlign=top;spacingLeft=4;spacingRight=4;overflow=hidden;rotatable=0;points=[[0,0.5],[1,0.5]];portConstraint=eastwest;" parent="hqKsF4QJngWxF_Nzv7ht-91" vertex="1">
          <mxGeometry y="60" width="160" height="26" as="geometry" />
        </mxCell>
        <mxCell id="hqKsF4QJngWxF_Nzv7ht-87" value="ElectricalSystem" style="swimlane;fontStyle=1;align=center;verticalAlign=top;childLayout=stackLayout;horizontal=1;startSize=26;horizontalStack=0;resizeParent=1;resizeParentMax=0;resizeLast=0;collapsible=1;marginBottom=0;" parent="1" vertex="1">
          <mxGeometry x="1030" y="610" width="160" height="86" as="geometry" />
        </mxCell>
        <mxCell id="hqKsF4QJngWxF_Nzv7ht-88" value="+ field: type" style="text;strokeColor=none;fillColor=none;align=left;verticalAlign=top;spacingLeft=4;spacingRight=4;overflow=hidden;rotatable=0;points=[[0,0.5],[1,0.5]];portConstraint=eastwest;" parent="hqKsF4QJngWxF_Nzv7ht-87" vertex="1">
          <mxGeometry y="26" width="160" height="26" as="geometry" />
        </mxCell>
        <mxCell id="hqKsF4QJngWxF_Nzv7ht-89" value="" style="line;strokeWidth=1;fillColor=none;align=left;verticalAlign=middle;spacingTop=-1;spacingLeft=3;spacingRight=3;rotatable=0;labelPosition=right;points=[];portConstraint=eastwest;" parent="hqKsF4QJngWxF_Nzv7ht-87" vertex="1">
          <mxGeometry y="52" width="160" height="8" as="geometry" />
        </mxCell>
        <mxCell id="hqKsF4QJngWxF_Nzv7ht-90" value="+ method(type): type" style="text;strokeColor=none;fillColor=none;align=left;verticalAlign=top;spacingLeft=4;spacingRight=4;overflow=hidden;rotatable=0;points=[[0,0.5],[1,0.5]];portConstraint=eastwest;" parent="hqKsF4QJngWxF_Nzv7ht-87" vertex="1">
          <mxGeometry y="60" width="160" height="26" as="geometry" />
        </mxCell>
        <mxCell id="hqKsF4QJngWxF_Nzv7ht-97" value="" style="endArrow=none;dashed=1;endFill=0;endSize=12;html=1;rounded=0;" parent="1" source="hqKsF4QJngWxF_Nzv7ht-63" target="hqKsF4QJngWxF_Nzv7ht-87" edge="1">
          <mxGeometry width="160" relative="1" as="geometry">
            <mxPoint x="1596" y="664.8280542986427" as="sourcePoint" />
            <mxPoint x="676" y="455.8506787330316" as="targetPoint" />
          </mxGeometry>
        </mxCell>
        <mxCell id="hqKsF4QJngWxF_Nzv7ht-98" value="HydraulicLandingGear" style="swimlane;fontStyle=1;align=center;verticalAlign=top;childLayout=stackLayout;horizontal=1;startSize=26;horizontalStack=0;resizeParent=1;resizeParentMax=0;resizeLast=0;collapsible=1;marginBottom=0;fillColor=#f5f5f5;fontColor=#333333;strokeColor=#666666;" parent="1" vertex="1">
          <mxGeometry x="660" y="840" width="160" height="86" as="geometry" />
        </mxCell>
        <mxCell id="hqKsF4QJngWxF_Nzv7ht-99" value="+ field: type" style="text;strokeColor=none;fillColor=none;align=left;verticalAlign=top;spacingLeft=4;spacingRight=4;overflow=hidden;rotatable=0;points=[[0,0.5],[1,0.5]];portConstraint=eastwest;" parent="hqKsF4QJngWxF_Nzv7ht-98" vertex="1">
          <mxGeometry y="26" width="160" height="26" as="geometry" />
        </mxCell>
        <mxCell id="hqKsF4QJngWxF_Nzv7ht-100" value="" style="line;strokeWidth=1;fillColor=none;align=left;verticalAlign=middle;spacingTop=-1;spacingLeft=3;spacingRight=3;rotatable=0;labelPosition=right;points=[];portConstraint=eastwest;" parent="hqKsF4QJngWxF_Nzv7ht-98" vertex="1">
          <mxGeometry y="52" width="160" height="8" as="geometry" />
        </mxCell>
        <mxCell id="hqKsF4QJngWxF_Nzv7ht-101" value="+ method(type): type" style="text;strokeColor=none;fillColor=none;align=left;verticalAlign=top;spacingLeft=4;spacingRight=4;overflow=hidden;rotatable=0;points=[[0,0.5],[1,0.5]];portConstraint=eastwest;" parent="hqKsF4QJngWxF_Nzv7ht-98" vertex="1">
          <mxGeometry y="60" width="160" height="26" as="geometry" />
        </mxCell>
        <mxCell id="hqKsF4QJngWxF_Nzv7ht-102" value="HumanPoweredLandingGear" style="swimlane;fontStyle=1;align=center;verticalAlign=top;childLayout=stackLayout;horizontal=1;startSize=26;horizontalStack=0;resizeParent=1;resizeParentMax=0;resizeLast=0;collapsible=1;marginBottom=0;" parent="1" vertex="1">
          <mxGeometry x="350" y="840" width="180" height="86" as="geometry" />
        </mxCell>
        <mxCell id="hqKsF4QJngWxF_Nzv7ht-103" value="+ field: type" style="text;strokeColor=none;fillColor=none;align=left;verticalAlign=top;spacingLeft=4;spacingRight=4;overflow=hidden;rotatable=0;points=[[0,0.5],[1,0.5]];portConstraint=eastwest;" parent="hqKsF4QJngWxF_Nzv7ht-102" vertex="1">
          <mxGeometry y="26" width="180" height="26" as="geometry" />
        </mxCell>
        <mxCell id="hqKsF4QJngWxF_Nzv7ht-104" value="" style="line;strokeWidth=1;fillColor=none;align=left;verticalAlign=middle;spacingTop=-1;spacingLeft=3;spacingRight=3;rotatable=0;labelPosition=right;points=[];portConstraint=eastwest;" parent="hqKsF4QJngWxF_Nzv7ht-102" vertex="1">
          <mxGeometry y="52" width="180" height="8" as="geometry" />
        </mxCell>
        <mxCell id="hqKsF4QJngWxF_Nzv7ht-105" value="+ method(type): type" style="text;strokeColor=none;fillColor=none;align=left;verticalAlign=top;spacingLeft=4;spacingRight=4;overflow=hidden;rotatable=0;points=[[0,0.5],[1,0.5]];portConstraint=eastwest;" parent="hqKsF4QJngWxF_Nzv7ht-102" vertex="1">
          <mxGeometry y="60" width="180" height="26" as="geometry" />
        </mxCell>
        <mxCell id="hqKsF4QJngWxF_Nzv7ht-106" value="HydraulicPump" style="swimlane;fontStyle=1;align=center;verticalAlign=top;childLayout=stackLayout;horizontal=1;startSize=26;horizontalStack=0;resizeParent=1;resizeParentMax=0;resizeLast=0;collapsible=1;marginBottom=0;" parent="1" vertex="1">
          <mxGeometry x="500" y="740" width="160" height="86" as="geometry" />
        </mxCell>
        <mxCell id="hqKsF4QJngWxF_Nzv7ht-107" value="+ field: type" style="text;strokeColor=none;fillColor=none;align=left;verticalAlign=top;spacingLeft=4;spacingRight=4;overflow=hidden;rotatable=0;points=[[0,0.5],[1,0.5]];portConstraint=eastwest;" parent="hqKsF4QJngWxF_Nzv7ht-106" vertex="1">
          <mxGeometry y="26" width="160" height="26" as="geometry" />
        </mxCell>
        <mxCell id="hqKsF4QJngWxF_Nzv7ht-108" value="" style="line;strokeWidth=1;fillColor=none;align=left;verticalAlign=middle;spacingTop=-1;spacingLeft=3;spacingRight=3;rotatable=0;labelPosition=right;points=[];portConstraint=eastwest;" parent="hqKsF4QJngWxF_Nzv7ht-106" vertex="1">
          <mxGeometry y="52" width="160" height="8" as="geometry" />
        </mxCell>
        <mxCell id="hqKsF4QJngWxF_Nzv7ht-109" value="+ method(type): type" style="text;strokeColor=none;fillColor=none;align=left;verticalAlign=top;spacingLeft=4;spacingRight=4;overflow=hidden;rotatable=0;points=[[0,0.5],[1,0.5]];portConstraint=eastwest;" parent="hqKsF4QJngWxF_Nzv7ht-106" vertex="1">
          <mxGeometry y="60" width="160" height="26" as="geometry" />
        </mxCell>
        <mxCell id="hqKsF4QJngWxF_Nzv7ht-110" value="Battery" style="swimlane;fontStyle=1;align=center;verticalAlign=top;childLayout=stackLayout;horizontal=1;startSize=26;horizontalStack=0;resizeParent=1;resizeParentMax=0;resizeLast=0;collapsible=1;marginBottom=0;" parent="1" vertex="1">
          <mxGeometry x="1290" y="696" width="160" height="86" as="geometry" />
        </mxCell>
        <mxCell id="hqKsF4QJngWxF_Nzv7ht-111" value="+ field: type" style="text;strokeColor=none;fillColor=none;align=left;verticalAlign=top;spacingLeft=4;spacingRight=4;overflow=hidden;rotatable=0;points=[[0,0.5],[1,0.5]];portConstraint=eastwest;" parent="hqKsF4QJngWxF_Nzv7ht-110" vertex="1">
          <mxGeometry y="26" width="160" height="26" as="geometry" />
        </mxCell>
        <mxCell id="hqKsF4QJngWxF_Nzv7ht-112" value="" style="line;strokeWidth=1;fillColor=none;align=left;verticalAlign=middle;spacingTop=-1;spacingLeft=3;spacingRight=3;rotatable=0;labelPosition=right;points=[];portConstraint=eastwest;" parent="hqKsF4QJngWxF_Nzv7ht-110" vertex="1">
          <mxGeometry y="52" width="160" height="8" as="geometry" />
        </mxCell>
        <mxCell id="hqKsF4QJngWxF_Nzv7ht-113" value="+ method(type): type" style="text;strokeColor=none;fillColor=none;align=left;verticalAlign=top;spacingLeft=4;spacingRight=4;overflow=hidden;rotatable=0;points=[[0,0.5],[1,0.5]];portConstraint=eastwest;" parent="hqKsF4QJngWxF_Nzv7ht-110" vertex="1">
          <mxGeometry y="60" width="160" height="26" as="geometry" />
        </mxCell>
        <mxCell id="hqKsF4QJngWxF_Nzv7ht-114" value="ElecticGenerator" style="swimlane;fontStyle=1;align=center;verticalAlign=top;childLayout=stackLayout;horizontal=1;startSize=26;horizontalStack=0;resizeParent=1;resizeParentMax=0;resizeLast=0;collapsible=1;marginBottom=0;" parent="1" vertex="1">
          <mxGeometry x="1290" y="560" width="160" height="86" as="geometry" />
        </mxCell>
        <mxCell id="hqKsF4QJngWxF_Nzv7ht-115" value="+ field: type" style="text;strokeColor=none;fillColor=none;align=left;verticalAlign=top;spacingLeft=4;spacingRight=4;overflow=hidden;rotatable=0;points=[[0,0.5],[1,0.5]];portConstraint=eastwest;" parent="hqKsF4QJngWxF_Nzv7ht-114" vertex="1">
          <mxGeometry y="26" width="160" height="26" as="geometry" />
        </mxCell>
        <mxCell id="hqKsF4QJngWxF_Nzv7ht-116" value="" style="line;strokeWidth=1;fillColor=none;align=left;verticalAlign=middle;spacingTop=-1;spacingLeft=3;spacingRight=3;rotatable=0;labelPosition=right;points=[];portConstraint=eastwest;" parent="hqKsF4QJngWxF_Nzv7ht-114" vertex="1">
          <mxGeometry y="52" width="160" height="8" as="geometry" />
        </mxCell>
        <mxCell id="hqKsF4QJngWxF_Nzv7ht-117" value="+ method(type): type" style="text;strokeColor=none;fillColor=none;align=left;verticalAlign=top;spacingLeft=4;spacingRight=4;overflow=hidden;rotatable=0;points=[[0,0.5],[1,0.5]];portConstraint=eastwest;" parent="hqKsF4QJngWxF_Nzv7ht-114" vertex="1">
          <mxGeometry y="60" width="160" height="26" as="geometry" />
        </mxCell>
        <mxCell id="hqKsF4QJngWxF_Nzv7ht-118" value="AirPressureSystem" style="swimlane;fontStyle=1;align=center;verticalAlign=top;childLayout=stackLayout;horizontal=1;startSize=26;horizontalStack=0;resizeParent=1;resizeParentMax=0;resizeLast=0;collapsible=1;marginBottom=0;" parent="1" vertex="1">
          <mxGeometry x="800" y="610" width="160" height="86" as="geometry" />
        </mxCell>
        <mxCell id="hqKsF4QJngWxF_Nzv7ht-119" value="+ field: type" style="text;strokeColor=none;fillColor=none;align=left;verticalAlign=top;spacingLeft=4;spacingRight=4;overflow=hidden;rotatable=0;points=[[0,0.5],[1,0.5]];portConstraint=eastwest;" parent="hqKsF4QJngWxF_Nzv7ht-118" vertex="1">
          <mxGeometry y="26" width="160" height="26" as="geometry" />
        </mxCell>
        <mxCell id="hqKsF4QJngWxF_Nzv7ht-120" value="" style="line;strokeWidth=1;fillColor=none;align=left;verticalAlign=middle;spacingTop=-1;spacingLeft=3;spacingRight=3;rotatable=0;labelPosition=right;points=[];portConstraint=eastwest;" parent="hqKsF4QJngWxF_Nzv7ht-118" vertex="1">
          <mxGeometry y="52" width="160" height="8" as="geometry" />
        </mxCell>
        <mxCell id="hqKsF4QJngWxF_Nzv7ht-121" value="+ method(type): type" style="text;strokeColor=none;fillColor=none;align=left;verticalAlign=top;spacingLeft=4;spacingRight=4;overflow=hidden;rotatable=0;points=[[0,0.5],[1,0.5]];portConstraint=eastwest;" parent="hqKsF4QJngWxF_Nzv7ht-118" vertex="1">
          <mxGeometry y="60" width="160" height="26" as="geometry" />
        </mxCell>
        <mxCell id="hqKsF4QJngWxF_Nzv7ht-122" value="AirPressureFlap" style="swimlane;fontStyle=1;align=center;verticalAlign=top;childLayout=stackLayout;horizontal=1;startSize=26;horizontalStack=0;resizeParent=1;resizeParentMax=0;resizeLast=0;collapsible=1;marginBottom=0;" parent="1" vertex="1">
          <mxGeometry x="900" y="840" width="160" height="86" as="geometry" />
        </mxCell>
        <mxCell id="hqKsF4QJngWxF_Nzv7ht-123" value="+ field: type" style="text;strokeColor=none;fillColor=none;align=left;verticalAlign=top;spacingLeft=4;spacingRight=4;overflow=hidden;rotatable=0;points=[[0,0.5],[1,0.5]];portConstraint=eastwest;" parent="hqKsF4QJngWxF_Nzv7ht-122" vertex="1">
          <mxGeometry y="26" width="160" height="26" as="geometry" />
        </mxCell>
        <mxCell id="hqKsF4QJngWxF_Nzv7ht-124" value="" style="line;strokeWidth=1;fillColor=none;align=left;verticalAlign=middle;spacingTop=-1;spacingLeft=3;spacingRight=3;rotatable=0;labelPosition=right;points=[];portConstraint=eastwest;" parent="hqKsF4QJngWxF_Nzv7ht-122" vertex="1">
          <mxGeometry y="52" width="160" height="8" as="geometry" />
        </mxCell>
        <mxCell id="hqKsF4QJngWxF_Nzv7ht-125" value="+ method(type): type" style="text;strokeColor=none;fillColor=none;align=left;verticalAlign=top;spacingLeft=4;spacingRight=4;overflow=hidden;rotatable=0;points=[[0,0.5],[1,0.5]];portConstraint=eastwest;" parent="hqKsF4QJngWxF_Nzv7ht-122" vertex="1">
          <mxGeometry y="60" width="160" height="26" as="geometry" />
        </mxCell>
        <mxCell id="hqKsF4QJngWxF_Nzv7ht-126" value="" style="endArrow=block;dashed=1;endFill=0;endSize=12;html=1;rounded=0;" parent="1" source="hqKsF4QJngWxF_Nzv7ht-102" target="hqKsF4QJngWxF_Nzv7ht-34" edge="1">
          <mxGeometry width="160" relative="1" as="geometry">
            <mxPoint x="312.2928176795581" y="620" as="sourcePoint" />
            <mxPoint x="200" y="548.6842105263158" as="targetPoint" />
          </mxGeometry>
        </mxCell>
        <mxCell id="hqKsF4QJngWxF_Nzv7ht-128" value="" style="endArrow=block;dashed=1;endFill=0;endSize=12;html=1;rounded=0;" parent="1" source="hqKsF4QJngWxF_Nzv7ht-98" target="hqKsF4QJngWxF_Nzv7ht-91" edge="1">
          <mxGeometry width="160" relative="1" as="geometry">
            <mxPoint x="530" y="752" as="sourcePoint" />
            <mxPoint x="530" y="706" as="targetPoint" />
          </mxGeometry>
        </mxCell>
        <mxCell id="hqKsF4QJngWxF_Nzv7ht-129" value="AirPressureGenerator" style="swimlane;fontStyle=1;align=center;verticalAlign=top;childLayout=stackLayout;horizontal=1;startSize=26;horizontalStack=0;resizeParent=1;resizeParentMax=0;resizeLast=0;collapsible=1;marginBottom=0;" parent="1" vertex="1">
          <mxGeometry x="750" y="740" width="160" height="86" as="geometry" />
        </mxCell>
        <mxCell id="hqKsF4QJngWxF_Nzv7ht-130" value="+ field: type" style="text;strokeColor=none;fillColor=none;align=left;verticalAlign=top;spacingLeft=4;spacingRight=4;overflow=hidden;rotatable=0;points=[[0,0.5],[1,0.5]];portConstraint=eastwest;" parent="hqKsF4QJngWxF_Nzv7ht-129" vertex="1">
          <mxGeometry y="26" width="160" height="26" as="geometry" />
        </mxCell>
        <mxCell id="hqKsF4QJngWxF_Nzv7ht-131" value="" style="line;strokeWidth=1;fillColor=none;align=left;verticalAlign=middle;spacingTop=-1;spacingLeft=3;spacingRight=3;rotatable=0;labelPosition=right;points=[];portConstraint=eastwest;" parent="hqKsF4QJngWxF_Nzv7ht-129" vertex="1">
          <mxGeometry y="52" width="160" height="8" as="geometry" />
        </mxCell>
        <mxCell id="hqKsF4QJngWxF_Nzv7ht-132" value="+ method(type): type" style="text;strokeColor=none;fillColor=none;align=left;verticalAlign=top;spacingLeft=4;spacingRight=4;overflow=hidden;rotatable=0;points=[[0,0.5],[1,0.5]];portConstraint=eastwest;" parent="hqKsF4QJngWxF_Nzv7ht-129" vertex="1">
          <mxGeometry y="60" width="160" height="26" as="geometry" />
        </mxCell>
        <mxCell id="BIoIZSFnLaRXP3XJdqJq-1" value="AircraftState" style="swimlane;fontStyle=1;align=center;verticalAlign=top;childLayout=stackLayout;horizontal=1;startSize=26;horizontalStack=0;resizeParent=1;resizeParentMax=0;resizeLast=0;collapsible=1;marginBottom=0;" vertex="1" parent="1">
          <mxGeometry x="550.5" y="-13" width="240" height="346" as="geometry" />
        </mxCell>
        <mxCell id="BIoIZSFnLaRXP3XJdqJq-2" value="- aircraftSystems: List&lt;AircraftSystem&gt;" style="text;strokeColor=none;fillColor=none;align=left;verticalAlign=top;spacingLeft=4;spacingRight=4;overflow=hidden;rotatable=0;points=[[0,0.5],[1,0.5]];portConstraint=eastwest;" vertex="1" parent="BIoIZSFnLaRXP3XJdqJq-1">
          <mxGeometry y="26" width="240" height="26" as="geometry" />
        </mxCell>
        <mxCell id="BIoIZSFnLaRXP3XJdqJq-3" value="" style="line;strokeWidth=1;fillColor=none;align=left;verticalAlign=middle;spacingTop=-1;spacingLeft=3;spacingRight=3;rotatable=0;labelPosition=right;points=[];portConstraint=eastwest;" vertex="1" parent="BIoIZSFnLaRXP3XJdqJq-1">
          <mxGeometry y="52" width="240" height="8" as="geometry" />
        </mxCell>
        <mxCell id="BIoIZSFnLaRXP3XJdqJq-133" value="+ Update(dt : double): void" style="text;strokeColor=none;fillColor=none;align=left;verticalAlign=top;spacingLeft=4;spacingRight=4;overflow=hidden;rotatable=0;points=[[0,0.5],[1,0.5]];portConstraint=eastwest;" vertex="1" parent="BIoIZSFnLaRXP3XJdqJq-1">
          <mxGeometry y="60" width="240" height="26" as="geometry" />
        </mxCell>
        <mxCell id="BIoIZSFnLaRXP3XJdqJq-80" value="+ GetAlpha(): double" style="text;strokeColor=none;fillColor=none;align=left;verticalAlign=top;spacingLeft=4;spacingRight=4;overflow=hidden;rotatable=0;points=[[0,0.5],[1,0.5]];portConstraint=eastwest;" vertex="1" parent="BIoIZSFnLaRXP3XJdqJq-1">
          <mxGeometry y="86" width="240" height="26" as="geometry" />
        </mxCell>
        <mxCell id="BIoIZSFnLaRXP3XJdqJq-81" value="+ GetBeta(): double" style="text;strokeColor=none;fillColor=none;align=left;verticalAlign=top;spacingLeft=4;spacingRight=4;overflow=hidden;rotatable=0;points=[[0,0.5],[1,0.5]];portConstraint=eastwest;" vertex="1" parent="BIoIZSFnLaRXP3XJdqJq-1">
          <mxGeometry y="112" width="240" height="26" as="geometry" />
        </mxCell>
        <mxCell id="BIoIZSFnLaRXP3XJdqJq-146" value="+ GetBetaDotL(): double" style="text;strokeColor=none;fillColor=none;align=left;verticalAlign=top;spacingLeft=4;spacingRight=4;overflow=hidden;rotatable=0;points=[[0,0.5],[1,0.5]];portConstraint=eastwest;" vertex="1" parent="BIoIZSFnLaRXP3XJdqJq-1">
          <mxGeometry y="138" width="240" height="26" as="geometry" />
        </mxCell>
        <mxCell id="BIoIZSFnLaRXP3XJdqJq-82" value="+ GetMach(speedOfSound : double): double" style="text;strokeColor=none;fillColor=none;align=left;verticalAlign=top;spacingLeft=4;spacingRight=4;overflow=hidden;rotatable=0;points=[[0,0.5],[1,0.5]];portConstraint=eastwest;" vertex="1" parent="BIoIZSFnLaRXP3XJdqJq-1">
          <mxGeometry y="164" width="240" height="26" as="geometry" />
        </mxCell>
        <mxCell id="BIoIZSFnLaRXP3XJdqJq-83" value="+ GetHmrc(): double" style="text;strokeColor=none;fillColor=none;align=left;verticalAlign=top;spacingLeft=4;spacingRight=4;overflow=hidden;rotatable=0;points=[[0,0.5],[1,0.5]];portConstraint=eastwest;" vertex="1" parent="BIoIZSFnLaRXP3XJdqJq-1">
          <mxGeometry y="190" width="240" height="26" as="geometry" />
        </mxCell>
        <mxCell id="BIoIZSFnLaRXP3XJdqJq-4" value="+ GetElevatorPosition(): double" style="text;strokeColor=none;fillColor=none;align=left;verticalAlign=top;spacingLeft=4;spacingRight=4;overflow=hidden;rotatable=0;points=[[0,0.5],[1,0.5]];portConstraint=eastwest;" vertex="1" parent="BIoIZSFnLaRXP3XJdqJq-1">
          <mxGeometry y="216" width="240" height="26" as="geometry" />
        </mxCell>
        <mxCell id="BIoIZSFnLaRXP3XJdqJq-29" value="+ GetAileronPosition(): double" style="text;strokeColor=none;fillColor=none;align=left;verticalAlign=top;spacingLeft=4;spacingRight=4;overflow=hidden;rotatable=0;points=[[0,0.5],[1,0.5]];portConstraint=eastwest;" vertex="1" parent="BIoIZSFnLaRXP3XJdqJq-1">
          <mxGeometry y="242" width="240" height="26" as="geometry" />
        </mxCell>
        <mxCell id="BIoIZSFnLaRXP3XJdqJq-30" value="+ GetRudderPosition(): double" style="text;strokeColor=none;fillColor=none;align=left;verticalAlign=top;spacingLeft=4;spacingRight=4;overflow=hidden;rotatable=0;points=[[0,0.5],[1,0.5]];portConstraint=eastwest;" vertex="1" parent="BIoIZSFnLaRXP3XJdqJq-1">
          <mxGeometry y="268" width="240" height="26" as="geometry" />
        </mxCell>
        <mxCell id="BIoIZSFnLaRXP3XJdqJq-31" value="+ GetFlapsPosition(): double" style="text;strokeColor=none;fillColor=none;align=left;verticalAlign=top;spacingLeft=4;spacingRight=4;overflow=hidden;rotatable=0;points=[[0,0.5],[1,0.5]];portConstraint=eastwest;" vertex="1" parent="BIoIZSFnLaRXP3XJdqJq-1">
          <mxGeometry y="294" width="240" height="26" as="geometry" />
        </mxCell>
        <mxCell id="BIoIZSFnLaRXP3XJdqJq-32" value="+ GetGearPosition(): double" style="text;strokeColor=none;fillColor=none;align=left;verticalAlign=top;spacingLeft=4;spacingRight=4;overflow=hidden;rotatable=0;points=[[0,0.5],[1,0.5]];portConstraint=eastwest;" vertex="1" parent="BIoIZSFnLaRXP3XJdqJq-1">
          <mxGeometry y="320" width="240" height="26" as="geometry" />
        </mxCell>
        <mxCell id="BIoIZSFnLaRXP3XJdqJq-8" value="Use" style="endArrow=open;endSize=12;dashed=1;html=1;rounded=0;" edge="1" parent="1" source="hqKsF4QJngWxF_Nzv7ht-83" target="BIoIZSFnLaRXP3XJdqJq-1">
          <mxGeometry width="160" relative="1" as="geometry">
            <mxPoint x="870" y="60" as="sourcePoint" />
            <mxPoint x="1030" y="60" as="targetPoint" />
          </mxGeometry>
        </mxCell>
        <mxCell id="BIoIZSFnLaRXP3XJdqJq-9" value="Use" style="endArrow=open;endSize=12;dashed=1;html=1;rounded=0;" edge="1" parent="1" source="hqKsF4QJngWxF_Nzv7ht-83" target="hqKsF4QJngWxF_Nzv7ht-26">
          <mxGeometry width="160" relative="1" as="geometry">
            <mxPoint x="1384" y="123.07594936708847" as="sourcePoint" />
            <mxPoint x="1130" y="206.6708860759495" as="targetPoint" />
          </mxGeometry>
        </mxCell>
        <mxCell id="BIoIZSFnLaRXP3XJdqJq-10" value="" style="endArrow=diamondThin;endFill=1;endSize=24;html=1;rounded=0;" edge="1" parent="1" source="BIoIZSFnLaRXP3XJdqJq-1" target="hqKsF4QJngWxF_Nzv7ht-15">
          <mxGeometry width="160" relative="1" as="geometry">
            <mxPoint x="940" y="10" as="sourcePoint" />
            <mxPoint x="1100" y="10" as="targetPoint" />
          </mxGeometry>
        </mxCell>
        <mxCell id="BIoIZSFnLaRXP3XJdqJq-12" value="" style="endArrow=diamondThin;endFill=1;endSize=24;html=1;rounded=0;" edge="1" parent="1" source="hqKsF4QJngWxF_Nzv7ht-26" target="hqKsF4QJngWxF_Nzv7ht-15">
          <mxGeometry width="160" relative="1" as="geometry">
            <mxPoint x="1042.1056644880173" y="150" as="sourcePoint" />
            <mxPoint x="793.5893246187366" y="-132" as="targetPoint" />
          </mxGeometry>
        </mxCell>
        <mxCell id="BIoIZSFnLaRXP3XJdqJq-13" value="" style="endArrow=diamondThin;endFill=1;endSize=24;html=1;rounded=0;" edge="1" parent="1" source="hqKsF4QJngWxF_Nzv7ht-83" target="hqKsF4QJngWxF_Nzv7ht-15">
          <mxGeometry width="160" relative="1" as="geometry">
            <mxPoint x="980" y="-148.0013003901172" as="sourcePoint" />
            <mxPoint x="821" y="-209.61638491547455" as="targetPoint" />
          </mxGeometry>
        </mxCell>
        <mxCell id="BIoIZSFnLaRXP3XJdqJq-14" value="Acts as a facade to hide system complexity from Input and AerodynamicModel" style="shape=callout;whiteSpace=wrap;html=1;perimeter=calloutPerimeter;position2=0.67;" vertex="1" parent="1">
          <mxGeometry x="490" y="-100" width="150" height="100" as="geometry" />
        </mxCell>
        <mxCell id="BIoIZSFnLaRXP3XJdqJq-15" value="" style="endArrow=diamondThin;endFill=1;endSize=24;html=1;rounded=0;" edge="1" parent="1" source="hqKsF4QJngWxF_Nzv7ht-41" target="BIoIZSFnLaRXP3XJdqJq-1">
          <mxGeometry width="160" relative="1" as="geometry">
            <mxPoint x="1022.3382687927106" y="130" as="sourcePoint" />
            <mxPoint x="792.8644646924827" y="-132" as="targetPoint" />
          </mxGeometry>
        </mxCell>
        <mxCell id="BIoIZSFnLaRXP3XJdqJq-134" value="*" style="edgeLabel;html=1;align=center;verticalAlign=middle;resizable=0;points=[];" vertex="1" connectable="0" parent="BIoIZSFnLaRXP3XJdqJq-15">
          <mxGeometry x="-0.5259" y="1" relative="1" as="geometry">
            <mxPoint as="offset" />
          </mxGeometry>
        </mxCell>
        <mxCell id="BIoIZSFnLaRXP3XJdqJq-36" value="" style="endArrow=diamondThin;endFill=1;endSize=24;html=1;rounded=0;" edge="1" parent="1" source="hqKsF4QJngWxF_Nzv7ht-30" target="hqKsF4QJngWxF_Nzv7ht-15">
          <mxGeometry width="160" relative="1" as="geometry">
            <mxPoint x="950" y="180" as="sourcePoint" />
            <mxPoint x="1110" y="180" as="targetPoint" />
          </mxGeometry>
        </mxCell>
        <mxCell id="BIoIZSFnLaRXP3XJdqJq-37" value="BaseComponent &lt;&lt;Abstract&gt;&gt;" style="swimlane;fontStyle=1;align=center;verticalAlign=top;childLayout=stackLayout;horizontal=1;startSize=26;horizontalStack=0;resizeParent=1;resizeParentMax=0;resizeLast=0;collapsible=1;marginBottom=0;" vertex="1" parent="1">
          <mxGeometry x="90" y="-460" width="210" height="112" as="geometry" />
        </mxCell>
        <mxCell id="BIoIZSFnLaRXP3XJdqJq-39" value="" style="line;strokeWidth=1;fillColor=none;align=left;verticalAlign=middle;spacingTop=-1;spacingLeft=3;spacingRight=3;rotatable=0;labelPosition=right;points=[];portConstraint=eastwest;" vertex="1" parent="BIoIZSFnLaRXP3XJdqJq-37">
          <mxGeometry y="26" width="210" height="8" as="geometry" />
        </mxCell>
        <mxCell id="BIoIZSFnLaRXP3XJdqJq-41" value="+ ColdInit(): void" style="text;strokeColor=none;fillColor=none;align=left;verticalAlign=top;spacingLeft=4;spacingRight=4;overflow=hidden;rotatable=0;points=[[0,0.5],[1,0.5]];portConstraint=eastwest;" vertex="1" parent="BIoIZSFnLaRXP3XJdqJq-37">
          <mxGeometry y="34" width="210" height="26" as="geometry" />
        </mxCell>
        <mxCell id="BIoIZSFnLaRXP3XJdqJq-42" value="+ HotInit(): void" style="text;strokeColor=none;fillColor=none;align=left;verticalAlign=top;spacingLeft=4;spacingRight=4;overflow=hidden;rotatable=0;points=[[0,0.5],[1,0.5]];portConstraint=eastwest;" vertex="1" parent="BIoIZSFnLaRXP3XJdqJq-37">
          <mxGeometry y="60" width="210" height="26" as="geometry" />
        </mxCell>
        <mxCell id="BIoIZSFnLaRXP3XJdqJq-43" value="+ AirborneInit(): void" style="text;strokeColor=none;fillColor=none;align=left;verticalAlign=top;spacingLeft=4;spacingRight=4;overflow=hidden;rotatable=0;points=[[0,0.5],[1,0.5]];portConstraint=eastwest;" vertex="1" parent="BIoIZSFnLaRXP3XJdqJq-37">
          <mxGeometry y="86" width="210" height="26" as="geometry" />
        </mxCell>
        <mxCell id="BIoIZSFnLaRXP3XJdqJq-33" value="Everything needs to have a different initial state for cold, hot or airborne" style="shape=callout;whiteSpace=wrap;html=1;perimeter=calloutPerimeter;position2=0.67;" vertex="1" parent="1">
          <mxGeometry x="60" y="-550" width="150" height="100" as="geometry" />
        </mxCell>
        <mxCell id="BIoIZSFnLaRXP3XJdqJq-44" value="Holds the user input, aka the desired state" style="shape=callout;whiteSpace=wrap;html=1;perimeter=calloutPerimeter;position2=0.67;" vertex="1" parent="1">
          <mxGeometry x="100" y="-210" width="150" height="100" as="geometry" />
        </mxCell>
        <mxCell id="BIoIZSFnLaRXP3XJdqJq-45" value="Coefficient&lt;&lt;Abstract&gt;&gt;" style="swimlane;fontStyle=1;align=center;verticalAlign=top;childLayout=stackLayout;horizontal=1;startSize=26;horizontalStack=0;resizeParent=1;resizeParentMax=0;resizeLast=0;collapsible=1;marginBottom=0;" vertex="1" parent="1">
          <mxGeometry x="1380" y="-48" width="280" height="86" as="geometry" />
        </mxCell>
        <mxCell id="BIoIZSFnLaRXP3XJdqJq-46" value="- axis : CoefficientAxis" style="text;strokeColor=none;fillColor=none;align=left;verticalAlign=top;spacingLeft=4;spacingRight=4;overflow=hidden;rotatable=0;points=[[0,0.5],[1,0.5]];portConstraint=eastwest;" vertex="1" parent="BIoIZSFnLaRXP3XJdqJq-45">
          <mxGeometry y="26" width="280" height="26" as="geometry" />
        </mxCell>
        <mxCell id="BIoIZSFnLaRXP3XJdqJq-47" value="" style="line;strokeWidth=1;fillColor=none;align=left;verticalAlign=middle;spacingTop=-1;spacingLeft=3;spacingRight=3;rotatable=0;labelPosition=right;points=[];portConstraint=eastwest;" vertex="1" parent="BIoIZSFnLaRXP3XJdqJq-45">
          <mxGeometry y="52" width="280" height="8" as="geometry" />
        </mxCell>
        <mxCell id="BIoIZSFnLaRXP3XJdqJq-48" value="+ Calculate(state : AircraftState): double = 0" style="text;strokeColor=none;fillColor=none;align=left;verticalAlign=top;spacingLeft=4;spacingRight=4;overflow=hidden;rotatable=0;points=[[0,0.5],[1,0.5]];portConstraint=eastwest;" vertex="1" parent="BIoIZSFnLaRXP3XJdqJq-45">
          <mxGeometry y="60" width="280" height="26" as="geometry" />
        </mxCell>
        <mxCell id="BIoIZSFnLaRXP3XJdqJq-70" value="CoefficientAxis&lt;&lt;Enum&gt;" style="swimlane;fontStyle=0;childLayout=stackLayout;horizontal=1;startSize=26;fillColor=none;horizontalStack=0;resizeParent=1;resizeParentMax=0;resizeLast=0;collapsible=1;marginBottom=0;" vertex="1" parent="1">
          <mxGeometry x="1425" y="-310" width="180" height="182" as="geometry" />
        </mxCell>
        <mxCell id="BIoIZSFnLaRXP3XJdqJq-71" value="LIFT" style="text;strokeColor=none;fillColor=none;align=left;verticalAlign=top;spacingLeft=4;spacingRight=4;overflow=hidden;rotatable=0;points=[[0,0.5],[1,0.5]];portConstraint=eastwest;" vertex="1" parent="BIoIZSFnLaRXP3XJdqJq-70">
          <mxGeometry y="26" width="180" height="26" as="geometry" />
        </mxCell>
        <mxCell id="BIoIZSFnLaRXP3XJdqJq-72" value="DRAG" style="text;strokeColor=none;fillColor=none;align=left;verticalAlign=top;spacingLeft=4;spacingRight=4;overflow=hidden;rotatable=0;points=[[0,0.5],[1,0.5]];portConstraint=eastwest;" vertex="1" parent="BIoIZSFnLaRXP3XJdqJq-70">
          <mxGeometry y="52" width="180" height="26" as="geometry" />
        </mxCell>
        <mxCell id="BIoIZSFnLaRXP3XJdqJq-73" value="SIDE" style="text;strokeColor=none;fillColor=none;align=left;verticalAlign=top;spacingLeft=4;spacingRight=4;overflow=hidden;rotatable=0;points=[[0,0.5],[1,0.5]];portConstraint=eastwest;" vertex="1" parent="BIoIZSFnLaRXP3XJdqJq-70">
          <mxGeometry y="78" width="180" height="26" as="geometry" />
        </mxCell>
        <mxCell id="BIoIZSFnLaRXP3XJdqJq-74" value="PITCH" style="text;strokeColor=none;fillColor=none;align=left;verticalAlign=top;spacingLeft=4;spacingRight=4;overflow=hidden;rotatable=0;points=[[0,0.5],[1,0.5]];portConstraint=eastwest;" vertex="1" parent="BIoIZSFnLaRXP3XJdqJq-70">
          <mxGeometry y="104" width="180" height="26" as="geometry" />
        </mxCell>
        <mxCell id="BIoIZSFnLaRXP3XJdqJq-99" value="ROLL" style="text;strokeColor=none;fillColor=none;align=left;verticalAlign=top;spacingLeft=4;spacingRight=4;overflow=hidden;rotatable=0;points=[[0,0.5],[1,0.5]];portConstraint=eastwest;" vertex="1" parent="BIoIZSFnLaRXP3XJdqJq-70">
          <mxGeometry y="130" width="180" height="26" as="geometry" />
        </mxCell>
        <mxCell id="BIoIZSFnLaRXP3XJdqJq-100" value="YAW" style="text;strokeColor=none;fillColor=none;align=left;verticalAlign=top;spacingLeft=4;spacingRight=4;overflow=hidden;rotatable=0;points=[[0,0.5],[1,0.5]];portConstraint=eastwest;" vertex="1" parent="BIoIZSFnLaRXP3XJdqJq-70">
          <mxGeometry y="156" width="180" height="26" as="geometry" />
        </mxCell>
        <mxCell id="BIoIZSFnLaRXP3XJdqJq-76" value="" style="endArrow=block;dashed=1;endFill=0;endSize=12;html=1;rounded=0;startArrow=none;" edge="1" parent="1" source="hqKsF4QJngWxF_Nzv7ht-118" target="hqKsF4QJngWxF_Nzv7ht-41">
          <mxGeometry width="160" relative="1" as="geometry">
            <mxPoint x="1110" y="576.4039735099336" as="sourcePoint" />
            <mxPoint x="540" y="386.9072847682114" as="targetPoint" />
          </mxGeometry>
        </mxCell>
        <mxCell id="BIoIZSFnLaRXP3XJdqJq-77" value="" style="endArrow=block;dashed=1;endFill=0;endSize=12;html=1;rounded=0;" edge="1" parent="1" source="hqKsF4QJngWxF_Nzv7ht-122" target="hqKsF4QJngWxF_Nzv7ht-118">
          <mxGeometry width="160" relative="1" as="geometry">
            <mxPoint x="711" y="752" as="sourcePoint" />
            <mxPoint x="711" y="705.9999999999995" as="targetPoint" />
          </mxGeometry>
        </mxCell>
        <mxCell id="BIoIZSFnLaRXP3XJdqJq-78" value="" style="endArrow=block;dashed=1;endFill=0;endSize=12;html=1;rounded=0;startArrow=none;" edge="1" parent="1" source="hqKsF4QJngWxF_Nzv7ht-91" target="hqKsF4QJngWxF_Nzv7ht-41">
          <mxGeometry width="160" relative="1" as="geometry">
            <mxPoint x="840" y="561.5979381443299" as="sourcePoint" />
            <mxPoint x="540" y="406.3402061855668" as="targetPoint" />
          </mxGeometry>
        </mxCell>
        <mxCell id="BIoIZSFnLaRXP3XJdqJq-79" value="" style="endArrow=open;endFill=1;endSize=12;html=1;rounded=0;" edge="1" parent="1" source="BIoIZSFnLaRXP3XJdqJq-45" target="BIoIZSFnLaRXP3XJdqJq-70">
          <mxGeometry width="160" relative="1" as="geometry">
            <mxPoint x="1210" as="sourcePoint" />
            <mxPoint x="1370" as="targetPoint" />
          </mxGeometry>
        </mxCell>
        <mxCell id="BIoIZSFnLaRXP3XJdqJq-84" value="Not sure if worth it to keep that information in an own class" style="shape=callout;whiteSpace=wrap;html=1;perimeter=calloutPerimeter;position2=0.67;" vertex="1" parent="1">
          <mxGeometry x="1030" y="-520" width="150" height="100" as="geometry" />
        </mxCell>
        <mxCell id="BIoIZSFnLaRXP3XJdqJq-87" value="" style="endArrow=block;dashed=1;endFill=0;endSize=12;html=1;rounded=0;" edge="1" parent="1" source="hqKsF4QJngWxF_Nzv7ht-106" target="hqKsF4QJngWxF_Nzv7ht-91">
          <mxGeometry width="160" relative="1" as="geometry">
            <mxPoint x="686.405303030303" y="752" as="sourcePoint" />
            <mxPoint x="660.094696969697" y="705.9999999999995" as="targetPoint" />
          </mxGeometry>
        </mxCell>
        <mxCell id="BIoIZSFnLaRXP3XJdqJq-88" value="" style="endArrow=block;dashed=1;endFill=0;endSize=12;html=1;rounded=0;" edge="1" parent="1" source="hqKsF4QJngWxF_Nzv7ht-129" target="hqKsF4QJngWxF_Nzv7ht-118">
          <mxGeometry width="160" relative="1" as="geometry">
            <mxPoint x="979.4347826086951" y="850" as="sourcePoint" />
            <mxPoint x="910.565217391304" y="705.9999999999995" as="targetPoint" />
          </mxGeometry>
        </mxCell>
        <mxCell id="BIoIZSFnLaRXP3XJdqJq-89" value="Don&#39;t ask ... &lt;br&gt;F4F uses air pressure for flaps" style="shape=callout;whiteSpace=wrap;html=1;perimeter=calloutPerimeter;" vertex="1" parent="1">
          <mxGeometry x="827" y="540" width="120" height="80" as="geometry" />
        </mxCell>
        <mxCell id="BIoIZSFnLaRXP3XJdqJq-90" value="Human powered landing gear ..." style="shape=callout;whiteSpace=wrap;html=1;perimeter=calloutPerimeter;" vertex="1" parent="1">
          <mxGeometry x="380.5" y="546" width="120" height="80" as="geometry" />
        </mxCell>
        <mxCell id="BIoIZSFnLaRXP3XJdqJq-91" value="Human" style="swimlane;fontStyle=1;align=center;verticalAlign=top;childLayout=stackLayout;horizontal=1;startSize=26;horizontalStack=0;resizeParent=1;resizeParentMax=0;resizeLast=0;collapsible=1;marginBottom=0;" vertex="1" parent="1">
          <mxGeometry x="190" y="742" width="180" height="86" as="geometry" />
        </mxCell>
        <mxCell id="BIoIZSFnLaRXP3XJdqJq-92" value="+ field: type" style="text;strokeColor=none;fillColor=none;align=left;verticalAlign=top;spacingLeft=4;spacingRight=4;overflow=hidden;rotatable=0;points=[[0,0.5],[1,0.5]];portConstraint=eastwest;" vertex="1" parent="BIoIZSFnLaRXP3XJdqJq-91">
          <mxGeometry y="26" width="180" height="26" as="geometry" />
        </mxCell>
        <mxCell id="BIoIZSFnLaRXP3XJdqJq-93" value="" style="line;strokeWidth=1;fillColor=none;align=left;verticalAlign=middle;spacingTop=-1;spacingLeft=3;spacingRight=3;rotatable=0;labelPosition=right;points=[];portConstraint=eastwest;" vertex="1" parent="BIoIZSFnLaRXP3XJdqJq-91">
          <mxGeometry y="52" width="180" height="8" as="geometry" />
        </mxCell>
        <mxCell id="BIoIZSFnLaRXP3XJdqJq-94" value="+ method(type): type" style="text;strokeColor=none;fillColor=none;align=left;verticalAlign=top;spacingLeft=4;spacingRight=4;overflow=hidden;rotatable=0;points=[[0,0.5],[1,0.5]];portConstraint=eastwest;" vertex="1" parent="BIoIZSFnLaRXP3XJdqJq-91">
          <mxGeometry y="60" width="180" height="26" as="geometry" />
        </mxCell>
        <mxCell id="BIoIZSFnLaRXP3XJdqJq-95" value="" style="endArrow=block;dashed=1;endFill=0;endSize=12;html=1;rounded=0;" edge="1" parent="1" source="BIoIZSFnLaRXP3XJdqJq-91" target="hqKsF4QJngWxF_Nzv7ht-34">
          <mxGeometry width="160" relative="1" as="geometry">
            <mxPoint x="436.913043478261" y="850" as="sourcePoint" />
            <mxPoint x="393.086956521739" y="706" as="targetPoint" />
          </mxGeometry>
        </mxCell>
        <mxCell id="BIoIZSFnLaRXP3XJdqJq-97" value="" style="endArrow=block;dashed=1;endFill=0;endSize=12;html=1;rounded=0;" edge="1" parent="1" source="hqKsF4QJngWxF_Nzv7ht-114" target="hqKsF4QJngWxF_Nzv7ht-87">
          <mxGeometry width="160" relative="1" as="geometry">
            <mxPoint x="1160.1538461538457" y="750" as="sourcePoint" />
            <mxPoint x="1139.8461538461534" y="705.9999999999995" as="targetPoint" />
          </mxGeometry>
        </mxCell>
        <mxCell id="BIoIZSFnLaRXP3XJdqJq-98" value="" style="endArrow=block;dashed=1;endFill=0;endSize=12;html=1;rounded=0;" edge="1" parent="1" source="hqKsF4QJngWxF_Nzv7ht-110" target="hqKsF4QJngWxF_Nzv7ht-87">
          <mxGeometry width="160" relative="1" as="geometry">
            <mxPoint x="1300" y="628.3846153846157" as="sourcePoint" />
            <mxPoint x="1200" y="647.6153846153848" as="targetPoint" />
          </mxGeometry>
        </mxCell>
        <mxCell id="BIoIZSFnLaRXP3XJdqJq-110" value="Coefficient1D&lt;&lt;Abstract&gt;&gt;" style="swimlane;fontStyle=1;align=center;verticalAlign=top;childLayout=stackLayout;horizontal=1;startSize=26;horizontalStack=0;resizeParent=1;resizeParentMax=0;resizeLast=0;collapsible=1;marginBottom=0;" vertex="1" parent="1">
          <mxGeometry x="1790" y="-310" width="230" height="86" as="geometry" />
        </mxCell>
        <mxCell id="BIoIZSFnLaRXP3XJdqJq-115" value="- data : double[int]" style="text;strokeColor=none;fillColor=none;align=left;verticalAlign=top;spacingLeft=4;spacingRight=4;overflow=hidden;rotatable=0;points=[[0,0.5],[1,0.5]];portConstraint=eastwest;" vertex="1" parent="BIoIZSFnLaRXP3XJdqJq-110">
          <mxGeometry y="26" width="230" height="26" as="geometry" />
        </mxCell>
        <mxCell id="BIoIZSFnLaRXP3XJdqJq-113" value="" style="line;strokeWidth=1;fillColor=none;align=left;verticalAlign=middle;spacingTop=-1;spacingLeft=3;spacingRight=3;rotatable=0;labelPosition=right;points=[];portConstraint=eastwest;" vertex="1" parent="BIoIZSFnLaRXP3XJdqJq-110">
          <mxGeometry y="52" width="230" height="8" as="geometry" />
        </mxCell>
        <mxCell id="BIoIZSFnLaRXP3XJdqJq-144" value="- getCoefficient(v0 : double): double" style="text;strokeColor=none;fillColor=none;align=left;verticalAlign=top;spacingLeft=4;spacingRight=4;overflow=hidden;rotatable=0;points=[[0,0.5],[1,0.5]];portConstraint=eastwest;" vertex="1" parent="BIoIZSFnLaRXP3XJdqJq-110">
          <mxGeometry y="60" width="230" height="26" as="geometry" />
        </mxCell>
        <mxCell id="BIoIZSFnLaRXP3XJdqJq-116" value="Coefficient2D&lt;&lt;Abstract&gt;&gt;" style="swimlane;fontStyle=1;align=center;verticalAlign=top;childLayout=stackLayout;horizontal=1;startSize=26;horizontalStack=0;resizeParent=1;resizeParentMax=0;resizeLast=0;collapsible=1;marginBottom=0;" vertex="1" parent="1">
          <mxGeometry x="1790" y="-126" width="270" height="86" as="geometry" />
        </mxCell>
        <mxCell id="BIoIZSFnLaRXP3XJdqJq-118" value="- data : double[int][int]" style="text;strokeColor=none;fillColor=none;align=left;verticalAlign=top;spacingLeft=4;spacingRight=4;overflow=hidden;rotatable=0;points=[[0,0.5],[1,0.5]];portConstraint=eastwest;" vertex="1" parent="BIoIZSFnLaRXP3XJdqJq-116">
          <mxGeometry y="26" width="270" height="26" as="geometry" />
        </mxCell>
        <mxCell id="BIoIZSFnLaRXP3XJdqJq-117" value="" style="line;strokeWidth=1;fillColor=none;align=left;verticalAlign=middle;spacingTop=-1;spacingLeft=3;spacingRight=3;rotatable=0;labelPosition=right;points=[];portConstraint=eastwest;" vertex="1" parent="BIoIZSFnLaRXP3XJdqJq-116">
          <mxGeometry y="52" width="270" height="8" as="geometry" />
        </mxCell>
        <mxCell id="BIoIZSFnLaRXP3XJdqJq-153" value="- getCoefficient(v0 : double, v1 : double): double" style="text;strokeColor=none;fillColor=none;align=left;verticalAlign=top;spacingLeft=4;spacingRight=4;overflow=hidden;rotatable=0;points=[[0,0.5],[1,0.5]];portConstraint=eastwest;" vertex="1" parent="BIoIZSFnLaRXP3XJdqJq-116">
          <mxGeometry y="60" width="270" height="26" as="geometry" />
        </mxCell>
        <mxCell id="BIoIZSFnLaRXP3XJdqJq-119" value="Coefficient3D&lt;&lt;Abstract&gt;&gt;" style="swimlane;fontStyle=1;align=center;verticalAlign=top;childLayout=stackLayout;horizontal=1;startSize=26;horizontalStack=0;resizeParent=1;resizeParentMax=0;resizeLast=0;collapsible=1;marginBottom=0;" vertex="1" parent="1">
          <mxGeometry x="1755" y="38" width="340" height="86" as="geometry" />
        </mxCell>
        <mxCell id="BIoIZSFnLaRXP3XJdqJq-121" value="- data : double[int][int][int]" style="text;strokeColor=none;fillColor=none;align=left;verticalAlign=top;spacingLeft=4;spacingRight=4;overflow=hidden;rotatable=0;points=[[0,0.5],[1,0.5]];portConstraint=eastwest;" vertex="1" parent="BIoIZSFnLaRXP3XJdqJq-119">
          <mxGeometry y="26" width="340" height="26" as="geometry" />
        </mxCell>
        <mxCell id="BIoIZSFnLaRXP3XJdqJq-120" value="" style="line;strokeWidth=1;fillColor=none;align=left;verticalAlign=middle;spacingTop=-1;spacingLeft=3;spacingRight=3;rotatable=0;labelPosition=right;points=[];portConstraint=eastwest;" vertex="1" parent="BIoIZSFnLaRXP3XJdqJq-119">
          <mxGeometry y="52" width="340" height="8" as="geometry" />
        </mxCell>
        <mxCell id="BIoIZSFnLaRXP3XJdqJq-154" value="- getCoefficient(v0 : double, v1 : double, v2 : double): double" style="text;strokeColor=none;fillColor=none;align=left;verticalAlign=top;spacingLeft=4;spacingRight=4;overflow=hidden;rotatable=0;points=[[0,0.5],[1,0.5]];portConstraint=eastwest;" vertex="1" parent="BIoIZSFnLaRXP3XJdqJq-119">
          <mxGeometry y="60" width="340" height="26" as="geometry" />
        </mxCell>
        <mxCell id="BIoIZSFnLaRXP3XJdqJq-122" value="" style="endArrow=diamondThin;endFill=1;endSize=24;html=1;rounded=0;" edge="1" parent="1" source="BIoIZSFnLaRXP3XJdqJq-45" target="hqKsF4QJngWxF_Nzv7ht-83">
          <mxGeometry width="160" relative="1" as="geometry">
            <mxPoint x="1690" y="-30" as="sourcePoint" />
            <mxPoint x="1850" y="-30" as="targetPoint" />
          </mxGeometry>
        </mxCell>
        <mxCell id="BIoIZSFnLaRXP3XJdqJq-123" value="*" style="edgeLabel;html=1;align=center;verticalAlign=middle;resizable=0;points=[];" vertex="1" connectable="0" parent="BIoIZSFnLaRXP3XJdqJq-122">
          <mxGeometry x="-0.3152" relative="1" as="geometry">
            <mxPoint x="21" y="-4" as="offset" />
          </mxGeometry>
        </mxCell>
        <mxCell id="BIoIZSFnLaRXP3XJdqJq-124" value="Use" style="endArrow=open;endSize=12;dashed=1;html=1;rounded=0;" edge="1" parent="1" source="BIoIZSFnLaRXP3XJdqJq-1" target="hqKsF4QJngWxF_Nzv7ht-30">
          <mxGeometry width="160" relative="1" as="geometry">
            <mxPoint x="350" y="110" as="sourcePoint" />
            <mxPoint x="800.5" y="108.09041980624306" as="targetPoint" />
          </mxGeometry>
        </mxCell>
        <mxCell id="BIoIZSFnLaRXP3XJdqJq-126" value="Command" style="swimlane;fontStyle=1;align=center;verticalAlign=top;childLayout=stackLayout;horizontal=1;startSize=26;horizontalStack=0;resizeParent=1;resizeParentMax=0;resizeLast=0;collapsible=1;marginBottom=0;" vertex="1" parent="1">
          <mxGeometry x="-90" y="-126" width="160" height="86" as="geometry" />
        </mxCell>
        <mxCell id="BIoIZSFnLaRXP3XJdqJq-127" value="+ field: type" style="text;strokeColor=none;fillColor=none;align=left;verticalAlign=top;spacingLeft=4;spacingRight=4;overflow=hidden;rotatable=0;points=[[0,0.5],[1,0.5]];portConstraint=eastwest;" vertex="1" parent="BIoIZSFnLaRXP3XJdqJq-126">
          <mxGeometry y="26" width="160" height="26" as="geometry" />
        </mxCell>
        <mxCell id="BIoIZSFnLaRXP3XJdqJq-128" value="" style="line;strokeWidth=1;fillColor=none;align=left;verticalAlign=middle;spacingTop=-1;spacingLeft=3;spacingRight=3;rotatable=0;labelPosition=right;points=[];portConstraint=eastwest;" vertex="1" parent="BIoIZSFnLaRXP3XJdqJq-126">
          <mxGeometry y="52" width="160" height="8" as="geometry" />
        </mxCell>
        <mxCell id="BIoIZSFnLaRXP3XJdqJq-129" value="+ method(type): type" style="text;strokeColor=none;fillColor=none;align=left;verticalAlign=top;spacingLeft=4;spacingRight=4;overflow=hidden;rotatable=0;points=[[0,0.5],[1,0.5]];portConstraint=eastwest;" vertex="1" parent="BIoIZSFnLaRXP3XJdqJq-126">
          <mxGeometry y="60" width="160" height="26" as="geometry" />
        </mxCell>
        <mxCell id="BIoIZSFnLaRXP3XJdqJq-130" value="" style="endArrow=diamondThin;endFill=1;endSize=24;html=1;rounded=0;" edge="1" parent="1" source="BIoIZSFnLaRXP3XJdqJq-126" target="hqKsF4QJngWxF_Nzv7ht-30">
          <mxGeometry width="160" relative="1" as="geometry">
            <mxPoint x="356.45854922279796" y="-116" as="sourcePoint" />
            <mxPoint x="530" y="-197.5919610231424" as="targetPoint" />
          </mxGeometry>
        </mxCell>
        <mxCell id="BIoIZSFnLaRXP3XJdqJq-132" value="*" style="edgeLabel;html=1;align=center;verticalAlign=middle;resizable=0;points=[];" vertex="1" connectable="0" parent="BIoIZSFnLaRXP3XJdqJq-130">
          <mxGeometry x="-0.6914" y="-2" relative="1" as="geometry">
            <mxPoint as="offset" />
          </mxGeometry>
        </mxCell>
        <mxCell id="BIoIZSFnLaRXP3XJdqJq-135" value="" style="endArrow=block;dashed=1;endFill=0;endSize=12;html=1;rounded=0;" edge="1" parent="1" source="BIoIZSFnLaRXP3XJdqJq-110" target="BIoIZSFnLaRXP3XJdqJq-45">
          <mxGeometry width="160" relative="1" as="geometry">
            <mxPoint x="1470" y="30" as="sourcePoint" />
            <mxPoint x="1630" y="30" as="targetPoint" />
          </mxGeometry>
        </mxCell>
        <mxCell id="BIoIZSFnLaRXP3XJdqJq-136" value="" style="endArrow=block;dashed=1;endFill=0;endSize=12;html=1;rounded=0;" edge="1" parent="1" source="BIoIZSFnLaRXP3XJdqJq-116" target="BIoIZSFnLaRXP3XJdqJq-45">
          <mxGeometry width="160" relative="1" as="geometry">
            <mxPoint x="1730" y="-36.640625" as="sourcePoint" />
            <mxPoint x="1640" y="-18.359375" as="targetPoint" />
          </mxGeometry>
        </mxCell>
        <mxCell id="BIoIZSFnLaRXP3XJdqJq-137" value="" style="endArrow=block;dashed=1;endFill=0;endSize=12;html=1;rounded=0;" edge="1" parent="1" source="BIoIZSFnLaRXP3XJdqJq-119" target="BIoIZSFnLaRXP3XJdqJq-45">
          <mxGeometry width="160" relative="1" as="geometry">
            <mxPoint x="1730" y="21.015625" as="sourcePoint" />
            <mxPoint x="1640" y="13.984375" as="targetPoint" />
          </mxGeometry>
        </mxCell>
        <mxCell id="BIoIZSFnLaRXP3XJdqJq-138" value="CMNBETADOT" style="swimlane;fontStyle=1;align=center;verticalAlign=top;childLayout=stackLayout;horizontal=1;startSize=26;horizontalStack=0;resizeParent=1;resizeParentMax=0;resizeLast=0;collapsible=1;marginBottom=0;" vertex="1" parent="1">
          <mxGeometry x="2090" y="-323" width="412" height="112" as="geometry" />
        </mxCell>
        <mxCell id="BIoIZSFnLaRXP3XJdqJq-140" value="- data : double[ ]" style="text;strokeColor=none;fillColor=none;align=left;verticalAlign=top;spacingLeft=4;spacingRight=4;overflow=hidden;rotatable=0;points=[[0,0.5],[1,0.5]];portConstraint=eastwest;" vertex="1" parent="BIoIZSFnLaRXP3XJdqJq-138">
          <mxGeometry y="26" width="412" height="26" as="geometry" />
        </mxCell>
        <mxCell id="BIoIZSFnLaRXP3XJdqJq-139" value="" style="line;strokeWidth=1;fillColor=none;align=left;verticalAlign=middle;spacingTop=-1;spacingLeft=3;spacingRight=3;rotatable=0;labelPosition=right;points=[];portConstraint=eastwest;" vertex="1" parent="BIoIZSFnLaRXP3XJdqJq-138">
          <mxGeometry y="52" width="412" height="8" as="geometry" />
        </mxCell>
        <mxCell id="BIoIZSFnLaRXP3XJdqJq-142" value="+ Calculate(state : AircraftState): double" style="text;strokeColor=none;fillColor=none;align=left;verticalAlign=top;spacingLeft=4;spacingRight=4;overflow=hidden;rotatable=0;points=[[0,0.5],[1,0.5]];portConstraint=eastwest;" vertex="1" parent="BIoIZSFnLaRXP3XJdqJq-138">
          <mxGeometry y="60" width="412" height="26" as="geometry" />
        </mxCell>
        <mxCell id="BIoIZSFnLaRXP3XJdqJq-145" value="- calculateCMNBETADOT(cmnbetadot : double, betaDotL : double): double" style="text;strokeColor=none;fillColor=none;align=left;verticalAlign=top;spacingLeft=4;spacingRight=4;overflow=hidden;rotatable=0;points=[[0,0.5],[1,0.5]];portConstraint=eastwest;" vertex="1" parent="BIoIZSFnLaRXP3XJdqJq-138">
          <mxGeometry y="86" width="412" height="26" as="geometry" />
        </mxCell>
        <mxCell id="BIoIZSFnLaRXP3XJdqJq-141" value="" style="endArrow=block;dashed=1;endFill=0;endSize=12;html=1;rounded=0;" edge="1" parent="1" source="BIoIZSFnLaRXP3XJdqJq-138" target="BIoIZSFnLaRXP3XJdqJq-110">
          <mxGeometry width="160" relative="1" as="geometry">
            <mxPoint x="1730" y="-36.640625" as="sourcePoint" />
            <mxPoint x="1640" y="-18.359375" as="targetPoint" />
          </mxGeometry>
        </mxCell>
        <mxCell id="BIoIZSFnLaRXP3XJdqJq-147" value="CMNBETADOT" style="swimlane;fontStyle=1;align=center;verticalAlign=top;childLayout=stackLayout;horizontal=1;startSize=26;horizontalStack=0;resizeParent=1;resizeParentMax=0;resizeLast=0;collapsible=1;marginBottom=0;" vertex="1" parent="1">
          <mxGeometry x="2120" y="-151" width="412" height="138" as="geometry" />
        </mxCell>
        <mxCell id="BIoIZSFnLaRXP3XJdqJq-148" value="- data : double[ ]" style="text;strokeColor=none;fillColor=none;align=left;verticalAlign=top;spacingLeft=4;spacingRight=4;overflow=hidden;rotatable=0;points=[[0,0.5],[1,0.5]];portConstraint=eastwest;" vertex="1" parent="BIoIZSFnLaRXP3XJdqJq-147">
          <mxGeometry y="26" width="412" height="26" as="geometry" />
        </mxCell>
        <mxCell id="BIoIZSFnLaRXP3XJdqJq-149" value="" style="line;strokeWidth=1;fillColor=none;align=left;verticalAlign=middle;spacingTop=-1;spacingLeft=3;spacingRight=3;rotatable=0;labelPosition=right;points=[];portConstraint=eastwest;" vertex="1" parent="BIoIZSFnLaRXP3XJdqJq-147">
          <mxGeometry y="52" width="412" height="8" as="geometry" />
        </mxCell>
        <mxCell id="BIoIZSFnLaRXP3XJdqJq-150" value="+ Calculate(state : AircraftState): double" style="text;strokeColor=none;fillColor=none;align=left;verticalAlign=top;spacingLeft=4;spacingRight=4;overflow=hidden;rotatable=0;points=[[0,0.5],[1,0.5]];portConstraint=eastwest;" vertex="1" parent="BIoIZSFnLaRXP3XJdqJq-147">
          <mxGeometry y="60" width="412" height="26" as="geometry" />
        </mxCell>
        <mxCell id="BIoIZSFnLaRXP3XJdqJq-151" value="- getCoefficient(alpha : double): double" style="text;strokeColor=none;fillColor=none;align=left;verticalAlign=top;spacingLeft=4;spacingRight=4;overflow=hidden;rotatable=0;points=[[0,0.5],[1,0.5]];portConstraint=eastwest;" vertex="1" parent="BIoIZSFnLaRXP3XJdqJq-147">
          <mxGeometry y="86" width="412" height="26" as="geometry" />
        </mxCell>
        <mxCell id="BIoIZSFnLaRXP3XJdqJq-152" value="- calculateCMNBETADOT(coefficient : double, betaDotL : double): double" style="text;strokeColor=none;fillColor=none;align=left;verticalAlign=top;spacingLeft=4;spacingRight=4;overflow=hidden;rotatable=0;points=[[0,0.5],[1,0.5]];portConstraint=eastwest;" vertex="1" parent="BIoIZSFnLaRXP3XJdqJq-147">
          <mxGeometry y="112" width="412" height="26" as="geometry" />
        </mxCell>
        <mxCell id="BIoIZSFnLaRXP3XJdqJq-155" value="&lt;div style=&quot;text-align: left&quot;&gt;&lt;span style=&quot;font-family: &amp;#34;courier new&amp;#34;&quot;&gt;CMNBETADOT::Calculate(AircraftState state)&lt;/span&gt;&lt;br&gt;&lt;/div&gt;&lt;div style=&quot;text-align: left&quot;&gt;&lt;span&gt;&lt;font face=&quot;Courier New&quot;&gt;{&lt;/font&gt;&lt;/span&gt;&lt;/div&gt;&lt;div style=&quot;text-align: left&quot;&gt;&lt;span&gt;&lt;font face=&quot;Courier New&quot;&gt;&amp;nbsp; &amp;nbsp; //&amp;nbsp;&lt;/font&gt;&lt;/span&gt;&lt;span style=&quot;font-family: &amp;#34;courier new&amp;#34;&quot;&gt;CMLBETADOT*BETADOT-L&lt;/span&gt;&lt;/div&gt;&lt;div style=&quot;text-align: left&quot;&gt;&lt;span&gt;&lt;font face=&quot;Courier New&quot;&gt;&amp;nbsp; &amp;nbsp; return getCoefficient(state.GetAlpha())&amp;nbsp;* state.GetBetaDotL();&lt;/font&gt;&lt;/span&gt;&lt;/div&gt;&lt;div style=&quot;text-align: left&quot;&gt;&lt;span&gt;&lt;font face=&quot;Courier New&quot;&gt;}&lt;/font&gt;&lt;/span&gt;&lt;/div&gt;" style="shape=callout;whiteSpace=wrap;html=1;perimeter=calloutPerimeter;" vertex="1" parent="1">
          <mxGeometry x="2030" y="-430" width="540" height="110" as="geometry" />
        </mxCell>
        <mxCell id="BIoIZSFnLaRXP3XJdqJq-158" value="" style="endArrow=block;dashed=1;endFill=0;endSize=12;html=1;rounded=0;" edge="1" parent="1" source="BIoIZSFnLaRXP3XJdqJq-147" target="BIoIZSFnLaRXP3XJdqJq-116">
          <mxGeometry width="160" relative="1" as="geometry">
            <mxPoint x="2100" y="-257" as="sourcePoint" />
            <mxPoint x="2030" y="-257" as="targetPoint" />
          </mxGeometry>
        </mxCell>
      </root>
    </mxGraphModel>
  </diagram>
</mxfile>
